<svg id="icon" xmlns="http://www.w3.org/2000/svg" width="743.346" height="756.305" viewBox="0 0 743.346 756.305">
  <defs>
    <style>
      .cls-1 {
        fill: #ffd767;
      }

      .cls-2 {
        fill: #fff;
      }

      .cls-3 {
        fill: #383938;
      }
    </style>
  </defs>
  <g id="Groupe_2961" data-name="Groupe 2961">
    <g id="Groupe_2961-2" data-name="Groupe 2961" transform="translate(0 0)">
      <path id="Tracé_9207" data-name="Tracé 9207" class="cls-1" d="M121.181,171.516c-11.453-4.666-12.725-3.393-19.3,6.575-3.818,5.726-10.18,9.968-15.27,14.634-5.514-9.544-9.968-19.088-16.119-27.359-7.847-10.6-19.3-1.909-29.692-4.03.636-5.09,1.06-10.392,1.7-15.906.848-8.908.424-16.543-9.756-21-5.938-2.757-10.6-8.271-17.391-13.786,6.15-5.3,11.241-10.18,17.179-14.422,5.09-3.818,6.787-9.332,3.605-16.755-2.969-7-6.15-14-9.544-22.269,7-.424,12.725-.848,18.451-.848,11.241,0,16.755-4.242,18.876-15.058,1.06-5.09,1.909-10.18,3.181-16.331,5.726,2.969,10.816,5.726,15.906,8.271,5.726,2.969,10.816,2.757,16.119-1.273,7.635-5.938,15.694-11.453,24.178-17.6,2.757,5.514,5.09,11.241,7.847,16.543,3.605,6.575,8.059,10.6,16.755,9.332,9.12-1.273,18.451-.848,28.844-1.06-1.06,6.787-2.121,13.149-2.969,19.3-2.969,18.876-2.545,19.724,13.786,29.692,2.545,1.485,5.09,2.969,8.483,4.666-5.09,5.3-9.756,10.18-14.634,15.058-5.938,6.151-9.332,12.725-5.09,21.421,2.545,5.09,3.605,10.816,5.514,16.543-8.908,1.485-17.6,2.757-26.087,4.666-5.09,1.06-9.12,2.333-8.059,10.392.848,5.938-3.818,12.513-6.363,19.3C134.118,177.454,127.756,174.061,121.181,171.516Z" transform="translate(267.785 230.819)"/>
      <path id="Tracé_9208" data-name="Tracé 9208" class="cls-1" d="M72.13,27.207c.424.848.636,1.909,1.06,2.757,4.666,11.241,4.03,14-5.726,21.633-1.06.848-3.393,1.485-4.454,1.06-16.967-9.12-33.934-18.239-50.9-27.571l.636-2.545c14.21-1.7,28.42-3.605,42.629-5.3C67.252,15.755,67.252,15.967,72.13,27.207Z" transform="translate(202.309 275.871)"/>
      <path id="Tracé_9209" data-name="Tracé 9209" class="cls-1" d="M14.27,14.233l1.909-1.273c5.726,3.393,11.665,6.787,17.391,10.18,9.756,5.726,19.3,11.665,29.268,16.967,3.818,1.909,4.878,4.03,4.242,8.271-2.121,15.482-1.909,15.058-17.391,18.027-7.635,1.485-11.028-.636-14-7.635C28.9,43.288,21.481,28.866,14.27,14.233Z" transform="translate(245.96 202.527)"/>
      <path id="Tracé_9210" data-name="Tracé 9210" class="cls-1" d="M76.69,136.868a9.317,9.317,0,0,1-5.726-1.485c-20.784-10.6-41.357-21.209-62.141-31.813-.636-.424-1.06-1.06-1.273-1.06q4.772-27.041,9.544-53.446a16.262,16.262,0,0,1,3.393-6.575c9.332-10.816,18.664-21.421,28.42-32.449C68.631,22.977,88.143,35.7,107.655,48.428a11.584,11.584,0,0,1,4.03,4.454c5.726,10.816,11.241,21.845,16.755,32.661,6.15,12.725,12.3,25.662,18.239,38.6a37.71,37.71,0,0,0,1.7,3.818C124.2,130.929,100.444,134.11,76.69,136.868Z" transform="translate(110.158 143.518)"/>
      <path id="Tracé_9211" data-name="Tracé 9211" class="cls-1" d="M97.612,18.468c21.845,14,43.478,28.207,65.535,42.629-7.635,7.635-15.906,15.694-23.966,23.542-11.241,10.816-22.269,21.633-33.722,31.813A27.379,27.379,0,0,1,93.371,122.6c-18.452,3.181-37.115,5.726-55.567,8.483-1.7.212-3.393.424-5.3.636C26.139,111.362,19.565,91.85,7.264,74.671a7.58,7.58,0,0,1-.848-5.726c1.909-13.786,4.03-27.571,6.151-41.993,7.423-.848,15.058-1.909,22.481-2.757,18.027-2.333,36.267-4.878,54.294-7C91.886,16.984,95.491,16.984,97.612,18.468Z" transform="translate(83.085 286.095)"/>
      <path id="Tracé_9212" data-name="Tracé 9212" class="cls-1" d="M54.351,20.7c1.273-1.06,4.454-1.272,6.363-.424,5.514,2.333,10.6,5.3,16.755,8.483-1.7,7.847-3.605,16.119-5.726,24.178a5.61,5.61,0,0,1-3.605,2.969c-18.239,2.545-36.691,4.666-54.93,7-.212-.424-.424-1.06-.636-1.485C26.568,47.638,40.353,34.064,54.351,20.7Z" transform="translate(211.605 339.851)"/>
      <path id="Tracé_9213" data-name="Tracé 9213" class="cls-1" d="M29.071,28.563a6.727,6.727,0,0,1,4.454-3.818c6.363-1.273,12.937-1.7,19.724-2.545,2.333,8.483,4.666,16.543,6.575,24.814.424,1.7-1.06,4.242-2.333,5.514C44.342,65.254,30.98,77.555,17.619,90.068l-1.909-.848C20.164,68.859,24.406,48.711,29.071,28.563Z" transform="translate(275.06 389.254)"/>
      <path id="Tracé_9214" data-name="Tracé 9214" class="cls-1" d="M18.022,76.257c3.393-21.209,7.211-42.417,11.241-65.747C35.625,23.023,40.927,33.627,46.23,44.232c2.333,4.666,4.242,9.544,6.575,14.422,5.09,10.18,5.09,10.18-3.605,18.239-4.454,4.03-8.7,8.271-13.574,12.725-5.09-2.757-10.392-5.514-15.27-8.7C19.083,80.074,17.81,77.529,18.022,76.257Z" transform="translate(321.316 153.016)"/>
      <path id="Tracé_9215" data-name="Tracé 9215" class="cls-1" d="M51.057,45.247c6.363-.212,9.968-2.545,11.877-8.059C66.751,26.159,70.145,14.919,73.962,2.83c5.09,9.332,11.028,18.027,14.21,27.571,2.545,7.423,6.575,9.968,12.937,9.756a241.187,241.187,0,0,0,24.6-2.333c5.09-.636,10.392-1.7,16.331-1.485-2.969,3.393-6.151,6.787-9.12,9.968-6.575,6.787-13.786,13.149-19.936,20.36C107.048,73.455,109.169,76,114.259,83c6.151,8.271,9.544,18.239,14.21,27.571-.848.848-1.909,1.7-2.757,2.545-7.423-5.938-15.058-11.241-21.845-17.6-5.514-4.878-11.028-4.878-16.543-1.272A259.714,259.714,0,0,0,65.9,110.57c-5.514,4.666-10.816,9.544-16.118,14.422a16.626,16.626,0,0,0-2.969-1.06C50.209,110.57,53.39,97.208,57,84.059c1.909-7.211-.636-12.513-5.938-16.331C45.119,63.487,38.544,60.305,32.393,56.7a32.985,32.985,0,0,1-8.483-6.787C32.818,48.216,41.937,45.671,51.057,45.247Z" transform="translate(440.771 -2.187)"/>
      <path id="Tracé_9216" data-name="Tracé 9216" class="cls-1" d="M96.821,6.41C111.667,14.258,126.3,22.1,139.238,29.1c-3.393,18.451-6.787,36.055-9.756,53.658A25.711,25.711,0,0,1,120.574,99.3c-19.936,17.6-39.236,35.63-58.96,53.446-2.121,1.909-4.666,3.818-7.211,5.938-.848-1.06-1.7-1.485-1.909-2.333-10.6-22.693-21.633-45.174-31.813-67.868-1.909-4.454-2.121-10.18-1.485-15.058,3.181-20.784,7.211-41.357,10.6-60.657,20.36-2.545,40.508-5.09,60.445-7.423A17.13,17.13,0,0,1,96.821,6.41Z" transform="translate(339.016 48.739)"/>
      <path id="Tracé_9217" data-name="Tracé 9217" class="cls-1" d="M17.229,49.89c15.482-15.27,30.965-30.54,46.659-45.6,1.06-1.06,3.818-1.909,5.09-1.273,20.36,11.028,40.508,22.269,60.657,33.51,0,.636-.212,1.485-.212,2.121-10.392,1.273-20.572,2.545-30.965,3.818-12.725,1.485-11.665,2.121-13.574,14.846-1.909,14-6.787,27.359-11.028,43.266-3.818-7.423-6.787-13.149-9.332-18.876-3.605-8.059-6.787-16.119-9.968-24.178C52.435,51.8,47.981,50.1,42.679,50.738c-8.7.848-17.391,2.121-27.359,3.393C16.38,51.587,16.592,50.526,17.229,49.89Z" transform="translate(267.179 -2.8)"/>
      <path id="Tracé_9218" data-name="Tracé 9218" class="cls-1" d="M42.917,27.494c9.756-13.149,23.117-17.6,39.024-17.6,8.059,0,16.331-2.121,24.39-3.605,4.666-.848,7.211,0,9.332,4.878,7,16.331,14.846,32.237,22.057,48.356a14.331,14.331,0,0,1,1.272,7.847c-5.3,29.056-10.816,58.112-16.331,87.167-.212.848-.636,1.7-1.272,3.393-4.666-2.757-8.908-5.3-13.149-7.847-17.815-9.968-35.63-20.148-53.87-29.692a27.419,27.419,0,0,1-12.725-12.725c-8.7-16.543-18.239-32.873-27.359-49.2-.848-1.485-1.485-3.181-2.545-5.09,8.483-6.787,16.755-13.574,25.026-20.36C38.887,31.311,41.432,29.827,42.917,27.494Z" transform="translate(194.832 61.802)"/>
      <path id="Tracé_9219" data-name="Tracé 9219" class="cls-1" d="M40.172,48.984c8.271-1.909,13.361-6.787,15.694-15.27,2.333-9.12,5.514-18.027,8.7-28.844C69.015,15.9,72.621,25.018,76.438,33.926c4.878,11.241,9.544,12.513,21.209,8.7,6.363-2.121,13.574-1.909,21.845-2.969-7.423,8.908-13.786,16.755-20.148,24.6s-5.514,9.12-.636,18.239c5.726,10.392,9.756,21.633,14.634,33.085-8.7-4.03-17.391-7-25.238-11.665-12.725-7.847-23.542-6.15-34.146,3.181-1.909,1.485-4.03,2.969-7.423,5.3.424-5.938,1.272-10.6.848-15.27C46.746,88.644,49.5,79.736,35.93,75.919,25.538,73.162,16.842,63.83,6.45,56.831,18.327,54.074,29.355,51.529,40.172,48.984Z" transform="translate(87.928 39.039)"/>
      <path id="Tracé_9220" data-name="Tracé 9220" class="cls-1" d="M115.728,80.966c-5.3,5.09-11.028,9.332-15.906,14.846-6.575,7.211-4.03,13.786,2.545,20.36,6.787,7,11.241,16.543,16.543,25.026L117,143.107c-6.787-3.393-13.361-7.211-20.148-10.392-30.328-14.634-22.481-15.906-48.568,4.878-3.181,2.545-6.575,5.3-10.392,8.483,2.333-13.149,4.666-24.814,6.575-36.691,1.06-6.787-2.545-11.665-8.059-14.846C28.56,90.086,20.5,86.268,12.442,82.027,9.473,80.542,6.5,78.845,3.11,76.937c10.18-1.273,19.512-2.333,28.844-3.605,4.666-.636,9.968-.848,13.786-3.181,3.605-2.121,7-6.575,7.847-10.392,2.333-12.513,3.393-25.45,5.09-37.963,1.06-.212,2.121-.212,3.393-.424,2.333,6.787,4.878,13.361,7.423,20.148,1.06,2.757,1.485,5.726,2.333,8.7C75.219,61.878,78.613,64,90.914,63.151c14.422-1.06,28.844-1.909,44.326-1.273C128.877,68.453,122.3,74.816,115.728,80.966Z" transform="translate(20.432 372.481)"/>
      <path id="Tracé_9221" data-name="Tracé 9221" class="cls-1" d="M98.742,90.9c-5.09,1.06-10.6,1.485-15.058,3.818-3.393,1.7-6.363,5.726-7.423,9.332-2.969,8.908-4.666,18.239-7,28.42-5.938-7.211-11.453-13.361-16.331-19.724a21.706,21.706,0,0,0-20.148-9.12c-8.908.636-17.815.848-22.693,1.273,3.393-5.726,7.423-13.149,11.877-20.572A7.7,7.7,0,0,1,26,81.567c8.908-3.393,11.028-7.423,7.847-16.755-3.181-9.12-7.211-18.027-10.816-26.935.636-.636,1.273-1.485,1.909-2.121,6.575,4.878,13.574,9.12,19.724,14.634,4.666,4.242,9.756,5.09,16.119.424C69.686,44.028,78.594,37.029,89.2,28.97c-1.7,9.332-3.181,16.755-4.03,24.178-.636,5.938-1.485,12.089-.636,17.815,0,0,5.726,12.725,15.27,6.151,4.03,3.181,8.271,6.787,13.786,11.241C107.65,89.2,103.2,89.839,98.742,90.9Z" transform="translate(161.488 526.067)"/>
      <path id="Tracé_9222" data-name="Tracé 9222" class="cls-1" d="M61.683,174.445c-2.969.212-6.363-1.061-9.12-2.757-12.513-7-24.6-14.21-37.963-22.057,4.666-19.3,9.12-38.812,14.21-58.536.636-2.757,3.181-5.09,5.09-7.211,15.482-15.27,31.177-30.328,46.871-45.6,4.242-4.242,8.271-8.7,13.149-13.786,1.909,4.03,3.393,7,4.878,10.18,8.483,19.724,17.391,39.448,25.45,59.384a40.018,40.018,0,0,1,2.333,18.027c-1.909,16.967-4.666,33.722-7.211,50.476-.424,2.969-1.273,5.726-1.909,8.908C98.586,172.748,80.135,173.809,61.683,174.445Z" transform="translate(252.629 435.734)"/>
      <path id="Tracé_9223" data-name="Tracé 9223" class="cls-1" d="M66.474,41.784c11.028-8.059,21.209-17.6,31.6-26.511a8.661,8.661,0,0,1,4.878-2.333c-2.121,9.332-4.454,18.664-6.575,28-1.06,4.878-5.09,10.392-2.757,14.634,2.757,5.3,9.12,4.878,13.786,10.18,1.273,1.273,3.818-.424,5.726-.636.636,0,1.273.636,1.909,1.06,10.392,5.3,21,10.6,31.389,15.906a5.872,5.872,0,0,1-.212,1.909c-17.391,3.181-34.782,6.575-52.173,9.332-6.787,1.06-11.453,2.757-12.725,10.816-1.06,7.847-4.242,15.27-6.575,23.329-4.03-5.09-8.059-9.756-11.453-14.634-.848-1.272-1.06-3.605-.848-5.514C63.929,96.926,58.2,90.776,47.6,92.472c-13.786,2.333-27.571,5.514-41.145,8.271-1.273.636-2.333.636-4.454,1.06C9,93.533,15.574,85.9,22.36,78.475c.636-.848,2.333-.848,3.393-1.272C37.206,74.233,40.6,66.81,35.722,55.569,31.056,44.541,26.39,33.3,21.936,22.272c-.424-1.06-.636-2.333-1.485-4.666C28.935,21.423,36.782,24.393,44.205,28" transform="translate(-2 202.122)"/>
    </g>
  </g>
  <path id="Tracé_9207-2" data-name="Tracé 9207" class="cls-1" d="M8.73,70.876c.212-.424.212-1.06.424-1.272,19.3-14.634,38.6-29.268,58.112-43.69,2.121-1.485,4.878-3.181,7.423-3.181,25.45-.212,50.9-.212,76.987-.212-9.968,30.54-19.3,59.6-28.632,88.44a8.856,8.856,0,0,1-2.757,4.454c-15.27,11.877-30.752,23.754-45.6,35.206-14-8.7-26.3-16.543-39.024-23.966-5.09-2.969-7.847-7-9.756-12.513A346.486,346.486,0,0,0,8.73,70.876Z" transform="translate(134.003 395.72)"/>
  <circle id="Ellipse_1163" data-name="Ellipse 1163" class="cls-1" cx="180.485" cy="180.485" r="180.485" transform="translate(340.397 185.159)"/>
  <path id="Tracé_9208-2" data-name="Tracé 9208" class="cls-2" d="M59.988,62.207,53.626,96.989c-.848,2.121-.212,4.666-.212,7.211.636-1.485,1.272-2.757,1.7-4.03,5.726-15.482,9.756-31.6,14-47.507a3,3,0,0,0-.212-2.333c-2.121-3.818-5.3-6.787-7.847-10.18-2.757-3.605-6.15-7-8.908-10.392C46.415,22.547,39.84,16.185,33.69,9.61a16.412,16.412,0,0,0,2.545,5.514L60.2,50.118c.636.848,2.969,1.909,2.121,3.818C60.837,56.481,60.625,59.45,59.988,62.207Z" transform="translate(638.414 134.827)"/>
  <path id="Tracé_9209-2" data-name="Tracé 9209" class="cls-3" d="M348.754,621.4a6.189,6.189,0,0,0,1.909-.424,5.868,5.868,0,0,0,3.605-3.817l34.57-119.829a6.917,6.917,0,0,0,0-3.605L372.3,446.641a6.1,6.1,0,0,0-7-4.03,5.741,5.741,0,0,0-4.03,7.635l15.906,45.6-14,48.78c-8.7,30.116-44.326,42.629-69.776,24.39l-41.357-29.268L208.777,416.313c-9.12-26.3-30.328-47.083-56.2-55.354A172.343,172.343,0,0,1,41.229,252.582C9.84,162.87,57.135,63.614,146.423,31.589,236.56-.861,336.453,46.01,368.9,136.147c18.876,52.173,12.089,108.588-18.451,155.035a90.25,90.25,0,0,0-9.968,79.108l6.575,18.451a13.581,13.581,0,0,1-.212,10.392,13.284,13.284,0,0,1-8.059,7.423L294.46,422.039a3.553,3.553,0,0,1-4.454-2.121L240.378,278.033a6.466,6.466,0,0,0-7-4.242,6.354,6.354,0,0,0-5.3,6.151,38.645,38.645,0,0,1-8.908,23.754,36.684,36.684,0,0,1-26.935,13.149,37.485,37.485,0,0,1-28-10.6c-13.361-12.937-15.058-34.782-3.818-49.84a37.859,37.859,0,0,1,42.841-12.725c12.3,4.454,29.692,9.756,31.6,10.392a49.381,49.381,0,0,0,46.023-86.107c-19.936-15.058-48.78-12.3-65.747,5.938a49.645,49.645,0,0,0-13.149,36.267,5.837,5.837,0,1,0,11.665-.424,37.546,37.546,0,0,1,60.02-32.449,36.729,36.729,0,0,1,14.846,26.087,37.58,37.58,0,0,1-50.052,39.66h-.212c-.212,0-18.664-5.726-31.177-10.18-20.36-7.423-42.841-.636-56.2,16.543a49.247,49.247,0,0,0,41.569,79.108,50.144,50.144,0,0,0,35.206-17.179,44.859,44.859,0,0,0,7.635-12.089l43.478,124.495a15.229,15.229,0,0,0,19.3,9.332l43.69-15.27a25.842,25.842,0,0,0,14.21-11.665,25.436,25.436,0,0,0,1.909-20.784L351.3,366.473c-8.059-22.693-4.666-48.568,8.7-68.928a183.906,183.906,0,0,0,19.724-165.427C344.936,36.042,238.469-14.01,142.182,20.56A185.428,185.428,0,0,0,30.836,258.521C50.56,313.027,93.4,354.172,148.756,371.987c22.481,7.211,40.721,25.238,48.78,48.144l43.69,125.131a5.43,5.43,0,0,0,2.121,2.757l101.8,72.109A5.039,5.039,0,0,0,348.754,621.4Z" transform="translate(352.402 134.905)"/>
</svg>
