<?xml version="1.0" encoding="utf-8"?>
<!-- Generator: Adobe Illustrator 25.4.1, SVG Export Plug-In . SVG Version: 6.00 Build 0)  -->
<svg version="1.1" id="icon" xmlns="http://www.w3.org/2000/svg" xmlns:xlink="http://www.w3.org/1999/xlink" x="0px" y="0px"
	 viewBox="0 0 743.3 756.3" style="enable-background:new 0 0 743.3 756.3;" xml:space="preserve">
<style type="text/css">
	.st0{fill:#FFD767;}
	.st1{fill:#FFFFFF;}
	.st2{fill:#FFF9EB;}
</style>
<g id="Groupe_2961">
	<g id="Groupe_2961-2" transform="translate(0 0)">
		<path id="Tracé_9207" class="st0" d="M389,402.3c-11.5-4.7-12.7-3.4-19.3,6.6c-3.8,5.7-10.2,10-15.3,14.6
			c-5.5-9.5-10-19.1-16.1-27.4c-7.8-10.6-19.3-1.9-29.7-4c0.6-5.1,1.1-10.4,1.7-15.9c0.8-8.9,0.4-16.5-9.8-21
			c-5.9-2.8-10.6-8.3-17.4-13.8c6.1-5.3,11.2-10.2,17.2-14.4c5.1-3.8,6.8-9.3,3.6-16.8c-3-7-6.1-14-9.5-22.3
			c7-0.4,12.7-0.8,18.5-0.8c11.2,0,16.8-4.2,18.9-15.1c1.1-5.1,1.9-10.2,3.2-16.3c5.7,3,10.8,5.7,15.9,8.3c5.7,3,10.8,2.8,16.1-1.3
			c7.6-5.9,15.7-11.5,24.2-17.6c2.8,5.5,5.1,11.2,7.8,16.5c3.6,6.6,8.1,10.6,16.8,9.3c9.1-1.3,18.5-0.8,28.8-1.1
			c-1.1,6.8-2.1,13.1-3,19.3c-3,18.9-2.5,19.7,13.8,29.7c2.5,1.5,5.1,3,8.5,4.7c-5.1,5.3-9.8,10.2-14.6,15.1
			c-5.9,6.2-9.3,12.7-5.1,21.4c2.5,5.1,3.6,10.8,5.5,16.5c-8.9,1.5-17.6,2.8-26.1,4.7c-5.1,1.1-9.1,2.3-8.1,10.4
			c0.8,5.9-3.8,12.5-6.4,19.3C401.9,408.3,395.5,404.9,389,402.3z"/>
		<path id="Tracé_9208" class="st0" d="M274.4,303.1c0.4,0.8,0.6,1.9,1.1,2.8c4.7,11.2,4,14-5.7,21.6c-1.1,0.8-3.4,1.5-4.5,1.1
			c-17-9.1-33.9-18.2-50.9-27.6l0.6-2.5c14.2-1.7,28.4-3.6,42.6-5.3C269.6,291.6,269.6,291.8,274.4,303.1z"/>
		<path id="Tracé_9209" class="st0" d="M260.2,216.8l1.9-1.3c5.7,3.4,11.7,6.8,17.4,10.2c9.8,5.7,19.3,11.7,29.3,17
			c3.8,1.9,4.9,4,4.2,8.3c-2.1,15.5-1.9,15.1-17.4,18c-7.6,1.5-11-0.6-14-7.6C274.9,245.8,267.4,231.4,260.2,216.8z"/>
		<path id="Tracé_9210" class="st0" d="M186.8,280.4c-2,0.1-4-0.4-5.7-1.5c-20.8-10.6-41.4-21.2-62.1-31.8
			c-0.6-0.4-1.1-1.1-1.3-1.1c3.2-18,6.4-35.8,9.5-53.4c0.6-2.4,1.8-4.7,3.4-6.6c9.3-10.8,18.7-21.4,28.4-32.4
			c19.7,12.9,39.2,25.7,58.7,38.4c1.7,1.1,3.1,2.6,4,4.5c5.7,10.8,11.2,21.8,16.8,32.7c6.1,12.7,12.3,25.7,18.2,38.6
			c0.5,1.3,1.1,2.6,1.7,3.8C234.4,274.4,210.6,277.6,186.8,280.4z"/>
		<path id="Tracé_9211" class="st0" d="M180.7,304.6c21.8,14,43.5,28.2,65.5,42.6c-7.6,7.6-15.9,15.7-24,23.5
			c-11.2,10.8-22.3,21.6-33.7,31.8c-3.5,3-7.6,5.1-12.1,6.1c-18.5,3.2-37.1,5.7-55.6,8.5c-1.7,0.2-3.4,0.4-5.3,0.6
			c-6.4-20.4-12.9-39.9-25.2-57c-1-1.7-1.3-3.8-0.8-5.7c1.9-13.8,4-27.6,6.2-42c7.4-0.8,15.1-1.9,22.5-2.8c18-2.3,36.3-4.9,54.3-7
			C175,303.1,178.6,303.1,180.7,304.6z"/>
		<path id="Tracé_9212" class="st0" d="M266,360.6c1.3-1.1,4.5-1.3,6.4-0.4c5.5,2.3,10.6,5.3,16.8,8.5c-1.7,7.8-3.6,16.1-5.7,24.2
			c-0.7,1.5-2,2.6-3.6,3c-18.2,2.5-36.7,4.7-54.9,7c-0.2-0.4-0.4-1.1-0.6-1.5C238.2,387.5,252,373.9,266,360.6z"/>
		<path id="Tracé_9213" class="st0" d="M304.1,417.8c0.8-1.9,2.5-3.3,4.5-3.8c6.4-1.3,12.9-1.7,19.7-2.5c2.3,8.5,4.7,16.5,6.6,24.8
			c0.4,1.7-1.1,4.2-2.3,5.5c-13.1,12.7-26.5,25-39.9,37.5l-1.9-0.8C295.2,458.1,299.5,438,304.1,417.8z"/>
		<path id="Tracé_9214" class="st0" d="M339.3,229.3c3.4-21.2,7.2-42.4,11.2-65.7c6.4,12.5,11.7,23.1,17,33.7
			c2.3,4.7,4.2,9.5,6.6,14.4c5.1,10.2,5.1,10.2-3.6,18.2c-4.5,4-8.7,8.3-13.6,12.7c-5.1-2.8-10.4-5.5-15.3-8.7
			C340.4,233.1,339.1,230.5,339.3,229.3z"/>
		<path id="Tracé_9215" class="st0" d="M491.8,43.1c6.4-0.2,10-2.5,11.9-8.1c3.8-11,7.2-22.3,11-34.4c5.1,9.3,11,18,14.2,27.6
			c2.5,7.4,6.6,10,12.9,9.8c8.2-0.4,16.4-1.1,24.6-2.3c5.1-0.6,10.4-1.7,16.3-1.5c-3,3.4-6.2,6.8-9.1,10
			c-6.6,6.8-13.8,13.1-19.9,20.4c-5.9,6.8-3.8,9.3,1.3,16.3c6.2,8.3,9.5,18.2,14.2,27.6c-0.8,0.8-1.9,1.7-2.8,2.5
			c-7.4-5.9-15.1-11.2-21.8-17.6c-5.5-4.9-11-4.9-16.5-1.3c-7.4,5.1-14.6,10.5-21.4,16.3c-5.5,4.7-10.8,9.5-16.1,14.4
			c-1-0.4-1.9-0.8-3-1.1c3.4-13.4,6.6-26.7,10.2-39.9c1.9-7.2-0.6-12.5-5.9-16.3c-5.9-4.2-12.5-7.4-18.7-11c-3.2-1.8-6-4.1-8.5-6.8
			C473.6,46,482.7,43.5,491.8,43.1z"/>
		<path id="Tracé_9216" class="st0" d="M435.8,55.1c14.8,7.8,29.5,15.7,42.4,22.7c-3.4,18.5-6.8,36.1-9.8,53.7
			c-0.8,6.4-4,12.3-8.9,16.5c-19.9,17.6-39.2,35.6-59,53.4c-2.1,1.9-4.7,3.8-7.2,5.9c-0.8-1.1-1.7-1.5-1.9-2.3
			c-10.6-22.7-21.6-45.2-31.8-67.9c-1.9-4.5-2.1-10.2-1.5-15.1c3.2-20.8,7.2-41.4,10.6-60.7c20.4-2.5,40.5-5.1,60.4-7.4
			C431.5,54,433.7,54.4,435.8,55.1z"/>
		<path id="Tracé_9217" class="st0" d="M284.4,47.1c15.5-15.3,31-30.5,46.7-45.6c1.1-1.1,3.8-1.9,5.1-1.3
			c20.4,11,40.5,22.3,60.7,33.5c0,0.6-0.2,1.5-0.2,2.1c-10.4,1.3-20.6,2.5-31,3.8c-12.7,1.5-11.7,2.1-13.6,14.8
			c-1.9,14-6.8,27.4-11,43.3c-3.8-7.4-6.8-13.1-9.3-18.9c-3.6-8.1-6.8-16.1-10-24.2c-2.1-5.7-6.6-7.4-11.9-6.8
			c-8.7,0.8-17.4,2.1-27.4,3.4C283.6,48.8,283.8,47.7,284.4,47.1z"/>
		<path id="Tracé_9218" class="st0" d="M237.7,89.3c9.8-13.1,23.1-17.6,39-17.6c8.1,0,16.3-2.1,24.4-3.6c4.7-0.8,7.2,0,9.3,4.9
			c7,16.3,14.8,32.2,22.1,48.4c1.2,2.4,1.6,5.2,1.3,7.8c-5.3,29.1-10.8,58.1-16.3,87.2c-0.2,0.8-0.6,1.7-1.3,3.4
			c-4.7-2.8-8.9-5.3-13.1-7.8c-17.8-10-35.6-20.1-53.9-29.7c-5.6-2.7-10-7.2-12.7-12.7c-8.7-16.5-18.2-32.9-27.4-49.2
			c-0.8-1.5-1.5-3.2-2.5-5.1c8.5-6.8,16.8-13.6,25-20.4C233.7,93.1,236.3,91.6,237.7,89.3z"/>
		<path id="Tracé_9219" class="st0" d="M128.1,88c8.3-1.9,13.4-6.8,15.7-15.3c2.3-9.1,5.5-18,8.7-28.8c4.4,11,8.1,20.1,11.9,29.1
			c4.9,11.2,9.5,12.5,21.2,8.7c6.4-2.1,13.6-1.9,21.8-3c-7.4,8.9-13.8,16.8-20.1,24.6s-5.5,9.1-0.6,18.2
			c5.7,10.4,9.8,21.6,14.6,33.1c-8.7-4-17.4-7-25.2-11.7c-12.7-7.8-23.5-6.2-34.1,3.2c-1.9,1.5-4,3-7.4,5.3
			c0.4-5.9,1.3-10.6,0.8-15.3c-0.6-8.5,2.1-17.4-11.5-21.2c-10.4-2.8-19.1-12.1-29.5-19.1C106.3,93.1,117.3,90.6,128.1,88z"/>
		<path id="Tracé_9220" class="st0" d="M136.2,453.4c-5.3,5.1-11,9.3-15.9,14.8c-6.6,7.2-4,13.8,2.5,20.4c6.8,7,11.2,16.5,16.5,25
			l-1.9,1.9c-6.8-3.4-13.4-7.2-20.1-10.4c-30.3-14.6-22.5-15.9-48.6,4.9c-3.2,2.5-6.6,5.3-10.4,8.5c2.3-13.1,4.7-24.8,6.6-36.7
			c1.1-6.8-2.5-11.7-8.1-14.8c-7.8-4.5-15.9-8.3-24-12.5c-3-1.5-5.9-3.2-9.3-5.1c10.2-1.3,19.5-2.3,28.8-3.6
			c4.7-0.6,10-0.8,13.8-3.2c3.6-2.1,7-6.6,7.8-10.4c2.3-12.5,3.4-25.4,5.1-38c1.1-0.2,2.1-0.2,3.4-0.4c2.3,6.8,4.9,13.4,7.4,20.1
			c1.1,2.8,1.5,5.7,2.3,8.7c3.4,11.7,6.8,13.8,19.1,12.9c14.4-1.1,28.8-1.9,44.3-1.3C149.3,440.9,142.7,447.3,136.2,453.4z"/>
		<path id="Tracé_9221" class="st0" d="M260.2,617c-5.1,1.1-10.6,1.5-15.1,3.8c-3.4,1.7-6.4,5.7-7.4,9.3c-3,8.9-4.7,18.2-7,28.4
			c-5.9-7.2-11.5-13.4-16.3-19.7c-4.5-6.5-12.3-10-20.1-9.1c-8.9,0.6-17.8,0.8-22.7,1.3c3.4-5.7,7.4-13.1,11.9-20.6
			c1-1.3,2.4-2.3,4-2.8c8.9-3.4,11-7.4,7.8-16.8c-3.2-9.1-7.2-18-10.8-26.9c0.6-0.6,1.3-1.5,1.9-2.1c6.6,4.9,13.6,9.1,19.7,14.6
			c4.7,4.2,9.8,5.1,16.1,0.4c8.9-6.8,17.8-13.8,28.4-21.8c-1.7,9.3-3.2,16.8-4,24.2c-0.6,5.9-1.5,12.1-0.6,17.8
			c0,0,5.7,12.7,15.3,6.2c4,3.2,8.3,6.8,13.8,11.2C269.1,615.3,264.7,615.9,260.2,617z"/>
		<path id="Tracé_9222" class="st0" d="M314.3,610.2c-3,0.2-6.4-1.1-9.1-2.8c-12.5-7-24.6-14.2-38-22.1
			c4.7-19.3,9.1-38.8,14.2-58.5c0.6-2.8,3.2-5.1,5.1-7.2c15.5-15.3,31.2-30.3,46.9-45.6c4.2-4.2,8.3-8.7,13.1-13.8
			c1.9,4,3.4,7,4.9,10.2c8.5,19.7,17.4,39.4,25.5,59.4c2.2,5.8,2.9,11.9,2.3,18c-1.9,17-4.7,33.7-7.2,50.5c-0.4,3-1.3,5.7-1.9,8.9
			C351.2,608.5,332.8,609.5,314.3,610.2z"/>
		<path id="Tracé_9223" class="st0" d="M64.5,243.9c11-8.1,21.2-17.6,31.6-26.5c1.3-1.3,3-2.1,4.9-2.3c-2.1,9.3-4.5,18.7-6.6,28
			c-1.1,4.9-5.1,10.4-2.8,14.6c2.8,5.3,9.1,4.9,13.8,10.2c1.3,1.3,3.8-0.4,5.7-0.6c0.6,0,1.3,0.6,1.9,1.1
			c10.4,5.3,21,10.6,31.4,15.9c0,0.6,0,1.3-0.2,1.9c-17.4,3.2-34.8,6.6-52.2,9.3c-6.8,1.1-11.5,2.8-12.7,10.8
			c-1.1,7.8-4.2,15.3-6.6,23.3c-4-5.1-8.1-9.8-11.5-14.6c-0.8-1.3-1.1-3.6-0.8-5.5c1.5-10.4-4.2-16.5-14.8-14.8
			c-13.8,2.3-27.6,5.5-41.1,8.3c-1.3,0.6-2.3,0.6-4.5,1.1c7-8.3,13.6-15.9,20.4-23.3c0.6-0.8,2.3-0.8,3.4-1.3
			c11.5-3,14.8-10.4,10-21.6c-4.7-11-9.3-22.3-13.8-33.3c-0.4-1.1-0.6-2.3-1.5-4.7c8.5,3.8,16.3,6.8,23.8,10.4"/>
	</g>
</g>
<path id="Tracé_9207-2" class="st0" d="M142.7,466.6c0.2-0.4,0.2-1.1,0.4-1.3c19.3-14.6,38.6-29.3,58.1-43.7
	c2.1-1.5,4.9-3.2,7.4-3.2c25.4-0.2,50.9-0.2,77-0.2c-10,30.5-19.3,59.6-28.6,88.4c-0.4,1.7-1.4,3.3-2.8,4.5
	c-15.3,11.9-30.8,23.8-45.6,35.2c-14-8.7-26.3-16.5-39-24c-5.1-3-7.8-7-9.8-12.5C155.2,495.1,149.4,480.6,142.7,466.6z"/>
<circle id="Ellipse_1163" class="st0" cx="520.9" cy="365.6" r="180.5"/>
<path id="Tracé_9208-2" class="st1" d="M698.4,197l-6.4,34.8c-0.8,2.1-0.2,4.7-0.2,7.2c0.6-1.5,1.3-2.8,1.7-4
	c5.7-15.5,9.8-31.6,14-47.5c0.2-0.8,0.2-1.6-0.2-2.3c-2.1-3.8-5.3-6.8-7.8-10.2c-2.8-3.6-6.2-7-8.9-10.4
	c-5.7-7.2-12.3-13.6-18.5-20.1c0.5,2,1.4,3.9,2.5,5.5l24,35c0.6,0.8,3,1.9,2.1,3.8C699.3,191.3,699,194.3,698.4,197z"/>
<path id="Tracé_9209-2" class="st2" d="M701.2,756.3c0.7,0,1.3-0.2,1.9-0.4c1.7-0.6,3.1-2,3.6-3.8l34.6-119.8
	c0.3-1.2,0.3-2.4,0-3.6l-16.5-47.1c-1-2.9-4-4.6-7-4c-3.1,0.7-5,3.8-4.3,6.9c0.1,0.2,0.1,0.5,0.2,0.7l15.9,45.6l-14,48.8
	c-8.7,30.1-44.3,42.6-69.8,24.4l-41.4-29.3l-43.3-123.4c-9.1-26.3-30.3-47.1-56.2-55.4c-52.2-16.4-93.5-56.6-111.3-108.4
	c-31.4-89.7,15.9-189,105.2-221c90.1-32.4,190,14.4,222.5,104.6c18.9,52.2,12.1,108.6-18.5,155c-15.4,23.4-19.1,52.6-10,79.1
	l6.6,18.5c1.3,3.4,1.2,7.1-0.2,10.4c-1.5,3.5-4.4,6.2-8.1,7.4l-44.3,15.5c-1.8,0.6-3.8-0.3-4.5-2.1l-49.6-141.9c-1-2.9-4-4.7-7-4.2
	c-3,0.5-5.2,3.1-5.3,6.2c-0.2,8.7-3.4,17.1-8.9,23.8c-6.7,8-16.5,12.8-26.9,13.1c-10.4,0.5-20.5-3.3-28-10.6
	c-13.4-12.9-15.1-34.8-3.8-49.8c10-13.1,27.3-18.3,42.8-12.7c12.3,4.5,29.7,9.8,31.6,10.4c25.7,9.1,53.9-4.4,63-30.1
	c7.2-20.4,0.3-43.1-17-56c-19.9-15.1-48.8-12.3-65.7,5.9c-9.1,9.8-13.8,22.9-13.1,36.3c0.1,3.2,2.7,5.8,6,5.7c3.2-0.1,5.8-2.7,5.7-6
	c0-0.1,0-0.1,0-0.2c-1.3-20.7,14.3-38.6,35-39.9c9-0.6,17.8,2.1,25,7.4c8.4,6.2,13.8,15.7,14.8,26.1c2.4,20.6-12.4,39.3-33,41.6
	c-5.7,0.7-11.6,0-17-2h-0.2c-0.2,0-18.7-5.7-31.2-10.2c-20.4-7.4-42.8-0.6-56.2,16.5c-16.5,21.6-12.4,52.5,9.2,69
	c9.3,7.1,20.7,10.7,32.4,10.1c13.6-0.7,26.3-6.9,35.2-17.2c3.2-3.6,5.8-7.7,7.6-12.1l43.5,124.5c2.8,7.9,11.4,12,19.3,9.3l43.7-15.3
	c6-2,11.1-6.2,14.2-11.7c3.6-6.3,4.3-13.9,1.9-20.8l-6.6-18.9c-8.1-22.7-4.7-48.6,8.7-68.9c32.6-48.8,39.9-110.3,19.7-165.4
	c-34.8-96.1-141.3-146.1-237.5-111.6c-96.3,34.7-146.3,141-111.6,237.3c0.1,0.2,0.2,0.4,0.2,0.6c19.7,54.5,62.6,95.7,117.9,113.5
	c22.5,7.2,40.7,25.2,48.8,48.1l43.7,125.1c0.4,1.1,1.1,2.1,2.1,2.8L697.5,755C698.5,755.9,699.8,756.4,701.2,756.3z"/>
</svg>
