<svg id="logo" xmlns="http://www.w3.org/2000/svg" width="208.795" height="76.35" viewBox="0 0 208.795 76.35">
  <defs>
    <style>
      .cls-1 {
        fill: #ffd767;
      }

      .cls-2 {
        fill: #fff;
      }

      .cls-3 {
        fill: #262626;
      }

      .cls-4 {
        fill: #383938;
      }
    </style>
  </defs>
  <g id="Groupe_2961" data-name="Groupe 2961">
    <g id="Groupe_2961-2" data-name="Groupe 2961" transform="translate(0 0)">
      <path id="Tracé_9207" data-name="Tracé 9207" class="cls-1" d="M26.034,30.225c-1.156-.471-1.285-.343-1.948.664a9.176,9.176,0,0,1-1.542,1.477A28.427,28.427,0,0,0,20.917,29.6c-.792-1.071-1.948-.193-3-.407.064-.514.107-1.049.171-1.606.086-.9.043-1.67-.985-2.12A10.11,10.11,0,0,1,15.35,24.08c.621-.535,1.135-1.028,1.734-1.456a1.28,1.28,0,0,0,.364-1.691c-.3-.707-.621-1.413-.963-2.248.707-.043,1.285-.086,1.863-.086a1.655,1.655,0,0,0,1.906-1.52c.107-.514.193-1.028.321-1.649.578.3,1.092.578,1.606.835a1.388,1.388,0,0,0,1.627-.128c.771-.6,1.584-1.156,2.441-1.777.278.557.514,1.135.792,1.67a1.5,1.5,0,0,0,1.691.942,25.33,25.33,0,0,1,2.912-.107c-.107.685-.214,1.327-.3,1.948-.3,1.906-.257,1.991,1.392,3,.257.15.514.3.856.471-.514.535-.985,1.028-1.477,1.52a1.753,1.753,0,0,0-.514,2.162,12.725,12.725,0,0,1,.557,1.67c-.9.15-1.777.278-2.633.471-.514.107-.921.236-.814,1.049.086.6-.385,1.263-.642,1.948C27.34,30.825,26.7,30.482,26.034,30.225Z" transform="translate(13.233 10.391)"/>
      <path id="Tracé_9208" data-name="Tracé 9208" class="cls-1" d="M18.169,17.661c.043.086.064.193.107.278.471,1.135.407,1.413-.578,2.184a.592.592,0,0,1-.45.107c-1.713-.921-3.426-1.841-5.139-2.783l.064-.257c1.435-.171,2.869-.364,4.3-.535C17.677,16.505,17.677,16.527,18.169,17.661Z" transform="translate(9.536 12.935)"/>
      <path id="Tracé_9209" data-name="Tracé 9209" class="cls-1" d="M14.27,13.088l.193-.128c.578.343,1.178.685,1.756,1.028.985.578,1.948,1.178,2.955,1.713a.674.674,0,0,1,.428.835c-.214,1.563-.193,1.52-1.756,1.82a1.067,1.067,0,0,1-1.413-.771C15.747,16.022,15,14.566,14.27,13.088Z" transform="translate(12.001 8.794)"/>
      <path id="Tracé_9210" data-name="Tracé 9210" class="cls-1" d="M14.53,22.843a.941.941,0,0,1-.578-.15c-2.1-1.071-4.175-2.141-6.273-3.212-.064-.043-.107-.107-.128-.107q.482-2.73.963-5.4a1.642,1.642,0,0,1,.343-.664c.942-1.092,1.884-2.162,2.869-3.276,1.991,1.306,3.961,2.591,5.931,3.875a1.169,1.169,0,0,1,.407.45c.578,1.092,1.135,2.205,1.691,3.3.621,1.285,1.242,2.591,1.841,3.9a3.806,3.806,0,0,0,.171.385C19.326,22.244,16.928,22.565,14.53,22.843Z" transform="translate(4.333 5.462)"/>
      <path id="Tracé_9211" data-name="Tracé 9211" class="cls-1" d="M15.438,17.234c2.205,1.413,4.389,2.848,6.616,4.3-.771.771-1.606,1.584-2.419,2.377-1.135,1.092-2.248,2.184-3.4,3.212a2.764,2.764,0,0,1-1.22.621c-1.863.321-3.747.578-5.61.856-.171.021-.343.043-.535.064a19.621,19.621,0,0,0-2.548-5.759.765.765,0,0,1-.086-.578c.193-1.392.407-2.783.621-4.239.749-.086,1.52-.193,2.27-.278,1.82-.236,3.661-.492,5.481-.707A1.386,1.386,0,0,1,15.438,17.234Z" transform="translate(2.804 13.512)"/>
      <path id="Tracé_9212" data-name="Tracé 9212" class="cls-1" d="M16.788,19.851a.737.737,0,0,1,.642-.043c.557.236,1.071.535,1.691.856-.171.792-.364,1.627-.578,2.441a.566.566,0,0,1-.364.3c-1.841.257-3.7.471-5.545.707-.021-.043-.043-.107-.064-.15C13.983,22.57,15.375,21.2,16.788,19.851Z" transform="translate(10.061 16.548)"/>
      <path id="Tracé_9213" data-name="Tracé 9213" class="cls-1" d="M17.059,22.842a.679.679,0,0,1,.45-.385c.642-.128,1.306-.171,1.991-.257.236.856.471,1.67.664,2.505a.73.73,0,0,1-.236.557c-1.327,1.285-2.676,2.526-4.025,3.79l-.193-.086C16.16,26.91,16.588,24.876,17.059,22.842Z" transform="translate(13.644 19.337)"/>
      <path id="Tracé_9214" data-name="Tracé 9214" class="cls-1" d="M18,17.147c.343-2.141.728-4.282,1.135-6.637.642,1.263,1.178,2.334,1.713,3.4.236.471.428.963.664,1.456.514,1.028.514,1.028-.364,1.841-.45.407-.878.835-1.37,1.285-.514-.278-1.049-.557-1.542-.878A.631.631,0,0,1,18,17.147Z" transform="translate(16.256 5.998)"/>
      <path id="Tracé_9215" data-name="Tracé 9215" class="cls-1" d="M26.651,7.112a1.136,1.136,0,0,0,1.2-.814c.385-1.113.728-2.248,1.113-3.469A18.077,18.077,0,0,1,30.4,5.613,1.207,1.207,0,0,0,31.7,6.6a24.349,24.349,0,0,0,2.484-.236,9.823,9.823,0,0,1,1.649-.15c-.3.343-.621.685-.921,1.006-.664.685-1.392,1.327-2.013,2.055-.6.685-.385.942.128,1.649a17.965,17.965,0,0,1,1.435,2.783c-.086.086-.193.171-.278.257-.749-.6-1.52-1.135-2.205-1.777a1.255,1.255,0,0,0-1.67-.128,26.218,26.218,0,0,0-2.162,1.649c-.557.471-1.092.963-1.627,1.456a1.678,1.678,0,0,0-.3-.107c.343-1.349.664-2.7,1.028-4.025a1.43,1.43,0,0,0-.6-1.649c-.6-.428-1.263-.749-1.884-1.113a3.33,3.33,0,0,1-.856-.685A19.816,19.816,0,0,1,26.651,7.112Z" transform="translate(23 -2.765)"/>
      <path id="Tracé_9216" data-name="Tracé 9216" class="cls-1" d="M26.744,5.457c1.5.792,2.976,1.584,4.282,2.291-.343,1.863-.685,3.64-.985,5.417a2.6,2.6,0,0,1-.9,1.67c-2.013,1.777-3.961,3.6-5.952,5.4-.214.193-.471.385-.728.6-.086-.107-.171-.15-.193-.236-1.071-2.291-2.184-4.56-3.212-6.851a3.041,3.041,0,0,1-.15-1.52c.321-2.1.728-4.175,1.071-6.123,2.055-.257,4.089-.514,6.1-.749A1.729,1.729,0,0,1,26.744,5.457Z" transform="translate(17.255 0.11)"/>
      <path id="Tracé_9217" data-name="Tracé 9217" class="cls-1" d="M15.513,7.554c1.563-1.542,3.126-3.083,4.71-4.6a.577.577,0,0,1,.514-.128C22.792,3.935,24.826,5.07,26.86,6.2c0,.064-.021.15-.021.214L23.713,6.8c-1.285.15-1.178.214-1.37,1.5a37.465,37.465,0,0,1-1.113,4.368c-.385-.749-.685-1.327-.942-1.906-.364-.814-.685-1.627-1.006-2.441a1.021,1.021,0,0,0-1.2-.685c-.878.086-1.756.214-2.762.343A1.67,1.67,0,0,1,15.513,7.554Z" transform="translate(13.199 -2.8)"/>
      <path id="Tracé_9218" data-name="Tracé 9218" class="cls-1" d="M14.887,8.167a4.524,4.524,0,0,1,3.94-1.777,13.955,13.955,0,0,0,2.462-.364.715.715,0,0,1,.942.492c.707,1.649,1.5,3.254,2.227,4.882a1.447,1.447,0,0,1,.128.792c-.535,2.933-1.092,5.866-1.649,8.8-.021.086-.064.171-.128.343-.471-.278-.9-.535-1.327-.792-1.8-1.006-3.6-2.034-5.438-3a2.768,2.768,0,0,1-1.285-1.285c-.878-1.67-1.841-3.319-2.762-4.967-.086-.15-.15-.321-.257-.514.856-.685,1.691-1.37,2.526-2.055A2.573,2.573,0,0,0,14.887,8.167Z" transform="translate(9.114 0.848)"/>
      <path id="Tracé_9219" data-name="Tracé 9219" class="cls-1" d="M9.854,9.323a1.99,1.99,0,0,0,1.584-1.542c.236-.921.557-1.82.878-2.912.45,1.113.814,2.034,1.2,2.933.492,1.135.963,1.263,2.141.878a12.486,12.486,0,0,1,2.205-.3c-.749.9-1.392,1.691-2.034,2.484s-.557.921-.064,1.841c.578,1.049.985,2.184,1.477,3.34a27.88,27.88,0,0,1-2.548-1.178,2.615,2.615,0,0,0-3.447.321c-.193.15-.407.3-.749.535a10.11,10.11,0,0,0,.086-1.542c-.064-.856.214-1.756-1.156-2.141-1.049-.278-1.927-1.22-2.976-1.927C7.649,9.837,8.762,9.58,9.854,9.323Z" transform="translate(3.078 -0.437)"/>
      <path id="Tracé_9220" data-name="Tracé 9220" class="cls-1" d="M14.479,27.386c-.535.514-1.113.942-1.606,1.5-.664.728-.407,1.392.257,2.055a14.759,14.759,0,0,1,1.67,2.526l-.193.193c-.685-.343-1.349-.728-2.034-1.049C9.512,31.133,10.3,31,7.67,33.1c-.321.257-.664.535-1.049.856.236-1.327.471-2.505.664-3.7a1.423,1.423,0,0,0-.814-1.5c-.792-.45-1.606-.835-2.419-1.263-.3-.15-.6-.321-.942-.514,1.028-.128,1.97-.236,2.912-.364a3.686,3.686,0,0,0,1.392-.321,1.831,1.831,0,0,0,.792-1.049c.236-1.263.343-2.569.514-3.832.107-.021.214-.021.343-.043.236.685.492,1.349.749,2.034.107.278.15.578.236.878.343,1.178.685,1.392,1.927,1.306a38.349,38.349,0,0,1,4.475-.128C15.806,26.123,15.143,26.765,14.479,27.386Z" transform="translate(-0.733 18.39)"/>
      <path id="Tracé_9221" data-name="Tracé 9221" class="cls-1" d="M19.04,35.222a5.868,5.868,0,0,0-1.52.385,1.645,1.645,0,0,0-.749.942c-.3.9-.471,1.841-.707,2.869-.6-.728-1.156-1.349-1.649-1.991a2.191,2.191,0,0,0-2.034-.921c-.9.064-1.8.086-2.291.128.343-.578.749-1.327,1.2-2.077a.777.777,0,0,1,.407-.278c.9-.343,1.113-.749.792-1.691-.321-.921-.728-1.82-1.092-2.719.064-.064.128-.15.193-.214.664.492,1.37.921,1.991,1.477a1.144,1.144,0,0,0,1.627.043c.9-.685,1.8-1.392,2.869-2.205-.171.942-.321,1.691-.407,2.441a7.272,7.272,0,0,0-.064,1.8s.578,1.285,1.542.621c.407.321.835.685,1.392,1.135C19.939,35.051,19.489,35.115,19.04,35.222Z" transform="translate(7.231 27.062)"/>
      <path id="Tracé_9222" data-name="Tracé 9222" class="cls-1" d="M19.353,39.637a1.652,1.652,0,0,1-.921-.278c-1.263-.707-2.484-1.435-3.832-2.227.471-1.948.921-3.918,1.435-5.909a1.89,1.89,0,0,1,.514-.728c1.563-1.542,3.147-3.062,4.732-4.6.428-.428.835-.878,1.327-1.392.193.407.343.707.492,1.028.856,1.991,1.756,3.982,2.569,5.995a4.04,4.04,0,0,1,.236,1.82c-.193,1.713-.471,3.4-.728,5.1-.043.3-.128.578-.193.9C23.079,39.466,21.216,39.573,19.353,39.637Z" transform="translate(12.377 21.962)"/>
      <path id="Tracé_9223" data-name="Tracé 9223" class="cls-1" d="M8.509,15.852c1.113-.814,2.141-1.777,3.19-2.676a.874.874,0,0,1,.492-.236c-.214.942-.45,1.884-.664,2.826-.107.492-.514,1.049-.278,1.477.278.535.921.492,1.392,1.028.128.128.385-.043.578-.064.064,0,.128.064.193.107,1.049.535,2.12,1.071,3.169,1.606a.593.593,0,0,1-.021.193c-1.756.321-3.511.664-5.267.942-.685.107-1.156.278-1.285,1.092A16.954,16.954,0,0,1,9.344,24.5c-.407-.514-.814-.985-1.156-1.477a.933.933,0,0,1-.086-.557c.15-1.049-.428-1.67-1.5-1.5-1.392.236-2.783.557-4.154.835a1.73,1.73,0,0,1-.45.107c.707-.835,1.37-1.606,2.055-2.355.064-.086.236-.086.343-.128,1.156-.3,1.5-1.049,1.006-2.184C4.933,16.13,4.462,15,4.013,13.882c-.043-.107-.064-.236-.15-.471.856.385,1.649.685,2.4,1.049" transform="translate(-2 8.771)"/>
    </g>
  </g>
  <path id="Tracé_9207-2" data-name="Tracé 9207" class="cls-1" d="M8.73,27.4c.021-.043.021-.107.043-.128,1.948-1.477,3.9-2.955,5.866-4.411a1.461,1.461,0,0,1,.749-.321c2.569-.021,5.139-.021,7.772-.021-1.006,3.083-1.948,6.016-2.89,8.928a.894.894,0,0,1-.278.45c-1.542,1.2-3.1,2.4-4.6,3.554-1.413-.878-2.655-1.67-3.94-2.419a2.157,2.157,0,0,1-.985-1.263A34.979,34.979,0,0,0,8.73,27.4Z" transform="translate(5.679 19.702)"/>
  <circle id="Ellipse_1163" data-name="Ellipse 1163" class="cls-1" cx="18.22" cy="18.22" r="18.22" transform="translate(34.364 18.692)"/>
  <path id="Tracé_9208-2" data-name="Tracé 9208" class="cls-2" d="M36.345,14.92,35.7,18.431a2.048,2.048,0,0,0-.021.728c.064-.15.128-.278.171-.407.578-1.563.985-3.19,1.413-4.8a.3.3,0,0,0-.021-.236,9.355,9.355,0,0,0-.792-1.028c-.278-.364-.621-.707-.9-1.049-.578-.728-1.242-1.37-1.863-2.034a1.657,1.657,0,0,0,.257.557L36.366,13.7c.064.086.3.193.214.385A2.859,2.859,0,0,0,36.345,14.92Z" transform="translate(34.16 4.971)"/>
  <g id="Groupe_2962" data-name="Groupe 2962" transform="translate(84.507 15.288)">
    <path id="Tracé_9226" data-name="Tracé 9226" class="cls-3" d="M47.829,23.932l-.236-.621c0-.021-.021-.021-.043-.021h-.963c-.021,0-.021,0-.043.021L41.47,37.057V37.1l.021.021h2.355c.021,0,.021,0,.043-.021L44.9,34.359h4.3L50.205,37.1c0,.021.021.021.043.021H52.6c.021,0,.021,0,.021-.021v-.043l-4.368-11.84Zm-2.034,8.136L47.1,28.514l1.306,3.554Z" transform="translate(-41.47 5.293)"/>
    <path id="Tracé_9227" data-name="Tracé 9227" class="cls-3" d="M58.7,23.29c-.021,0-.021,0-.043.021L53.669,33.1,49,23.932l-.321-.621a.021.021,0,0,0-.021-.021H47.653a.046.046,0,0,0-.043.043V37.078a.046.046,0,0,0,.043.043h2.205a.046.046,0,0,0,.043-.043V30.741l2.505,4.9.749,1.456a.021.021,0,0,0,.021.021h1.006c.021,0,.021,0,.043-.021l.728-1.456,2.505-4.924v6.359a.046.046,0,0,0,.043.043h2.205a.046.046,0,0,0,.043-.043V23.333a.046.046,0,0,0-.043-.043Z" transform="translate(-34.464 5.293)"/>
    <path id="Tracé_9228" data-name="Tracé 9228" class="cls-3" d="M60.539,23.932l-.236-.621c0-.021-.021-.021-.043-.021H59.3c-.021,0-.021,0-.043.021L54.18,37.057V37.1l.021.021h2.355c.021,0,.021,0,.043-.021l1.006-2.741h4.3L62.915,37.1c0,.021.021.021.043.021h2.355c.021,0,.021,0,.021-.021v-.043l-4.368-11.84ZM58.5,32.068l1.306-3.554,1.306,3.554Z" transform="translate(-26.967 5.293)"/>
    <path id="Tracé_9229" data-name="Tracé 9229" class="cls-3" d="M62.621,34.83v-11.5a.046.046,0,0,0-.043-.043H60.373a.046.046,0,0,0-.043.043V37.078a.046.046,0,0,0,.043.043h9.785a.046.046,0,0,0,.043-.043V34.873a.046.046,0,0,0-.043-.043Z" transform="translate(-19.95 5.293)"/>
    <path id="Tracé_9230" data-name="Tracé 9230" class="cls-3" d="M80.056,25.538V23.333a.046.046,0,0,0-.043-.043H68.923a.046.046,0,0,0-.043.043v2.205a.046.046,0,0,0,.043.043h4.411v11.5a.046.046,0,0,0,.043.043h2.205a.046.046,0,0,0,.043-.043v-11.5h4.411A.075.075,0,0,0,80.056,25.538Z" transform="translate(-10.194 5.293)"/>
    <path id="Tracé_9231" data-name="Tracé 9231" class="cls-3" d="M79.429,23.932l-.236-.621c0-.021-.021-.021-.043-.021h-.963c-.021,0-.021,0-.043.021L73.07,37.057V37.1l.021.021h2.355c.021,0,.021,0,.043-.021L76.5,34.359h4.3L81.805,37.1c0,.021.021.021.043.021H84.2c.021,0,.021,0,.021-.021v-.043l-4.368-11.84Zm-2.055,8.136,1.306-3.554,1.306,3.554Z" transform="translate(-5.413 5.293)"/>
    <path id="Tracé_9232" data-name="Tracé 9232" class="cls-3" d="M84.2,23.29H79.273a.046.046,0,0,0-.043.043V37.078a.046.046,0,0,0,.043.043H84.2a6.916,6.916,0,1,0,0-13.831Zm0,11.54H81.5V25.581h2.7a4.625,4.625,0,0,1,0,9.249Z" transform="translate(1.616 5.293)"/>
    <path id="Tracé_9233" data-name="Tracé 9233" class="cls-3" d="M96.776,28.257a4.971,4.971,0,0,0-4.967-4.967H85.643a.046.046,0,0,0-.043.043V37.078a.046.046,0,0,0,.043.043h2.205a.046.046,0,0,0,.043-.043V33.246h3.426a.9.9,0,0,1,.557.214L94.614,36.2v.021a3.046,3.046,0,0,0,2.162.9.046.046,0,0,0,.043-.043V34.873a.046.046,0,0,0-.043-.043.9.9,0,0,1-.557-.214l-1.97-1.991A5.064,5.064,0,0,0,96.776,28.257Zm-4.989,2.7H87.869v-5.4h3.918a2.7,2.7,0,1,1,0,5.4Z" transform="translate(8.885 5.293)"/>
    <path id="Tracé_9234" data-name="Tracé 9234" class="cls-3" d="M91.683,23.29a.046.046,0,0,0-.043.043V37.078a.046.046,0,0,0,.043.043h2.205a.046.046,0,0,0,.043-.043V23.333a.046.046,0,0,0-.043-.043Z" transform="translate(15.777 5.293)"/>
    <path id="Tracé_9235" data-name="Tracé 9235" class="cls-3" d="M100.781,23.29H93.673a.046.046,0,0,0-.043.043V37.078a.046.046,0,0,0,.043.043h7.108a4.028,4.028,0,0,0,2.8-6.916,3.929,3.929,0,0,0,1.22-2.89A4.034,4.034,0,0,0,100.781,23.29Zm0,11.54h-4.86V31.34h4.86a1.741,1.741,0,0,1,1.734,1.734A1.759,1.759,0,0,1,100.781,34.83Zm0-5.781h-4.86V25.56h4.86a1.745,1.745,0,0,1,0,3.49Z" transform="translate(18.047 5.293)"/>
    <path id="Tracé_9236" data-name="Tracé 9236" class="cls-3" d="M48.062,22.158a1.831,1.831,0,0,0-.471-.321,1.42,1.42,0,0,0-.6-.107,1.858,1.858,0,0,0-.6.107,1.955,1.955,0,0,0-.492.321,1.831,1.831,0,0,0-.321.471,1.413,1.413,0,0,0-.128.578,1.437,1.437,0,0,0,.128.6,1.525,1.525,0,0,0,.321.471,1.635,1.635,0,0,0,.492.321,1.42,1.42,0,0,0,.6.107,1.535,1.535,0,0,0,1.52-1.52,1.275,1.275,0,0,0-.128-.578A2.923,2.923,0,0,0,48.062,22.158Z" transform="translate(-36.929 3.513)"/>
    <path id="Tracé_9237" data-name="Tracé 9237" class="cls-3" d="M49.932,25.214c5.074,0,8.2-.771,9.4-2.334a2.946,2.946,0,0,0,2.633,1.563v.043H63.57a4.745,4.745,0,0,0,3.49-1.263,4.727,4.727,0,0,0,1.263-3.469c0-2.162-.578-3.254-1.713-3.254a1.135,1.135,0,0,0-.9.385,1.3,1.3,0,0,0-.343.921c0,.128.021.3.043.492a5.556,5.556,0,0,0,.15.664,4.942,4.942,0,0,1,.193,1.135c0,.9-.664,1.37-1.991,1.37h-.878c-1.2,0-1.884-.471-2.077-1.435-.128-.642-.193-.963-.193-.985a.9.9,0,0,0-.921-.578q-.61,0-.963.771A9.055,9.055,0,0,1,58,20.7c-.792.985-2.869,1.456-6.273,1.456H50.082c-2.291,0-3.875-.257-4.732-.792a1.8,1.8,0,0,1-.878-1.627,4.972,4.972,0,0,1,.128-.963c.043-.214.086-.407.107-.557a3.3,3.3,0,0,0,.043-.407.858.858,0,0,0-.985-.963c-.6,0-1.071.514-1.413,1.563a7.482,7.482,0,0,0-.343,2.27C42.01,23.694,44.665,25.214,49.932,25.214Z" transform="translate(-40.854 -2.455)"/>
    <path id="Tracé_9238" data-name="Tracé 9238" class="cls-3" d="M53.442,21.45a1.858,1.858,0,0,0-.6.107,1.955,1.955,0,0,0-.492.321,1.033,1.033,0,0,0-.321.471,1.437,1.437,0,0,0-.128.6,1.275,1.275,0,0,0,.128.578,1.955,1.955,0,0,0,.321.492,1.1,1.1,0,0,0,.492.321,1.463,1.463,0,0,0,1.2,0,1.525,1.525,0,0,0,.471-.321,1.955,1.955,0,0,0,.321-.492,1.413,1.413,0,0,0,.128-.578,1.473,1.473,0,0,0-.45-1.071A1.542,1.542,0,0,0,53.442,21.45Z" transform="translate(-29.569 3.194)"/>
    <path id="Tracé_9239" data-name="Tracé 9239" class="cls-3" d="M55.771,24.34a1.955,1.955,0,0,0,.492-.321,1.229,1.229,0,0,0,.321-.492,1.413,1.413,0,0,0,.128-.578,1.437,1.437,0,0,0-.128-.6,1.525,1.525,0,0,0-.321-.471,1.635,1.635,0,0,0-.492-.321,1.42,1.42,0,0,0-.6-.107,1.594,1.594,0,0,0-1.092.428,1.473,1.473,0,0,0-.45,1.071,1.275,1.275,0,0,0,.128.578,1.955,1.955,0,0,0,.321.492,1.159,1.159,0,0,0,.471.321,1.437,1.437,0,0,0,.6.128A1.773,1.773,0,0,0,55.771,24.34Z" transform="translate(-27.595 3.194)"/>
    <path id="Tracé_9240" data-name="Tracé 9240" class="cls-3" d="M63.739,16.55c-.878,0-1.327.707-1.327,2.141,0,.171.021.428.043.792s.043.621.043.792A5.216,5.216,0,0,1,61.17,24,13.814,13.814,0,0,1,56.93,26.57a1.661,1.661,0,0,0-1.22,1.52c0,.792.45,1.178,1.327,1.178a1.98,1.98,0,0,0,.621-.086,11.014,11.014,0,0,0,5.61-3.383,8.959,8.959,0,0,0,2.12-6.038c0-.321-.021-.642-.043-.985C65.216,17.3,64.681,16.55,63.739,16.55Z" transform="translate(-25.221 -2.398)"/>
    <path id="Tracé_9241" data-name="Tracé 9241" class="cls-3" d="M67.47,16.9a1.159,1.159,0,0,0,.471.321,1.42,1.42,0,0,0,.6.107,1.857,1.857,0,0,0,.6-.107,1.525,1.525,0,0,0,.471-.321,1.955,1.955,0,0,0,.321-.492,1.463,1.463,0,0,0,0-1.2,1.525,1.525,0,0,0-.321-.471,1.831,1.831,0,0,0-.471-.321,1.42,1.42,0,0,0-.6-.107,1.857,1.857,0,0,0-.6.107,1.533,1.533,0,0,0-.792.792,1.463,1.463,0,0,0,0,1.2A1.955,1.955,0,0,0,67.47,16.9Z" transform="translate(-12.316 -4.954)"/>
    <path id="Tracé_9242" data-name="Tracé 9242" class="cls-3" d="M69.21,16.9a1.1,1.1,0,0,0,.492.321,1.42,1.42,0,0,0,.6.107,1.857,1.857,0,0,0,.6-.107,1.23,1.23,0,0,0,.471-.321,1.955,1.955,0,0,0,.321-.492,1.515,1.515,0,0,0-1.392-2.1,1.857,1.857,0,0,0-.6.107,1.955,1.955,0,0,0-.492.321,1.033,1.033,0,0,0-.321.471,1.463,1.463,0,0,0,0,1.2A1.955,1.955,0,0,0,69.21,16.9Z" transform="translate(-10.331 -4.954)"/>
    <path id="Tracé_9243" data-name="Tracé 9243" class="cls-3" d="M78.814,20.964c0-2.162-.578-3.254-1.713-3.254a1.135,1.135,0,0,0-.9.385,1.3,1.3,0,0,0-.343.921c0,.128.021.3.043.492a5.558,5.558,0,0,0,.15.664,4.942,4.942,0,0,1,.193,1.135c0,.9-.664,1.37-1.991,1.37H73.2a2.5,2.5,0,0,1-1.8-.642,7.207,7.207,0,0,1-1.071-1.627c-1.627-3.1-2.741-4.753-3.361-4.924a1.372,1.372,0,0,0-1.713,1.22,3.647,3.647,0,0,0,.685,1.82c.3.471.557.856.771,1.178s.364.557.492.728a5.853,5.853,0,0,1,.835,1.756v.128c0,.856-1.649,1.37-4.946,1.584q-1.8.128-1.8,1.22v.128c.086,1.006.921,1.5,2.484,1.5a13.747,13.747,0,0,0,2.484-.3c1.884-.385,3.1-1.028,3.64-1.884a3.077,3.077,0,0,0,2.569,1.113V25.7h1.606a4.745,4.745,0,0,0,3.49-1.263A4.84,4.84,0,0,0,78.814,20.964Z" transform="translate(-18.843 -3.664)"/>
    <path id="Tracé_9244" data-name="Tracé 9244" class="cls-3" d="M119.212,28.006A3.817,3.817,0,0,0,120,25.543a4.767,4.767,0,0,0-.707-2.655,2.643,2.643,0,0,0-2.355-1.263,3.564,3.564,0,0,0-2.526,1.327c-.086.086-.236.278-.45.557s-.492.664-.814,1.135a2.894,2.894,0,0,1-.856.856,2.612,2.612,0,0,1-1.2.214H88.938q-2.248,0-2.248-3.34V14.26c0-1.006-.428-1.52-1.263-1.52a1.3,1.3,0,0,0-1.049.45,1.579,1.579,0,0,0-.364,1.135l.364,12.911a4.284,4.284,0,0,1-.921,3.1,3.8,3.8,0,0,1-3.04,1.2,3.879,3.879,0,0,1-2.462-.749,2.65,2.65,0,0,1-1.049-2.248,7.525,7.525,0,0,1,.15-1.306,8.056,8.056,0,0,0,.171-1.306c0-.664-.343-.985-1.049-.985-.621,0-1.092.471-1.392,1.435a8.324,8.324,0,0,0-.385,2.591,5.472,5.472,0,0,0,1.542,4.047,5.569,5.569,0,0,0,4.111,1.563,6.276,6.276,0,0,0,4.9-1.906A7.616,7.616,0,0,0,86.6,27.685a1.891,1.891,0,0,0,1.456,1.028v.064H111.4a3.456,3.456,0,0,0,2.505-.985,3.714,3.714,0,0,0,3,1.349A2.87,2.87,0,0,0,119.212,28.006Zm-3.34-1.67c-.407-.214-.621-.45-.621-.685a1.32,1.32,0,0,1,.514-.963,1.549,1.549,0,0,1,1.049-.471.957.957,0,0,1,.835.471,1.814,1.814,0,0,1,.278.963c0,.642-.364.963-1.071.963A2.544,2.544,0,0,1,115.872,26.336Z" transform="translate(-3.895 -6.745)"/>
    <path id="Tracé_9245" data-name="Tracé 9245" class="cls-3" d="M99.16,29.249c.771,0,1.156-.471,1.156-1.435v-13.1q0-1.991-1.349-1.991a1.247,1.247,0,0,0-1.156.749,2.783,2.783,0,0,0-.3,1.435l.514,13C98.047,28.8,98.432,29.249,99.16,29.249Z" transform="translate(22.473 -6.768)"/>
    <path id="Tracé_9246" data-name="Tracé 9246" class="cls-3" d="M102.18,12.573a1.971,1.971,0,0,0-.407.043c-1.006.278-1.542.428-1.584.428q-1.542,0-1.542-.963c0-.557.343-.856,1.006-.856a2.933,2.933,0,0,1,.642.086,6.224,6.224,0,0,0,.664.086c.321,0,.471-.171.471-.492s-.214-.578-.621-.749A2.629,2.629,0,0,0,99.76,9.94a2.546,2.546,0,0,0-1.777.664,2.169,2.169,0,0,0-.728,1.67,1.894,1.894,0,0,0,.728,1.52l-.771.3c-.428.171-.642.428-.642.749s.193.492.6.492a1.444,1.444,0,0,0,.364-.064l4.518-1.413q.835-.257.835-.771T102.18,12.573Z" transform="translate(21.402 -9.94)"/>
  </g>
  <path id="Tracé_9209-2" data-name="Tracé 9209" class="cls-4" d="M52.772,71.375a.625.625,0,0,0,.193-.043.592.592,0,0,0,.364-.385l3.49-12.1a.7.7,0,0,0,0-.364l-1.67-4.753a.615.615,0,0,0-.707-.407.58.58,0,0,0-.407.771l1.606,4.6-1.413,4.924a4.561,4.561,0,0,1-7.044,2.462l-4.175-2.955L38.641,50.671a8.977,8.977,0,0,0-5.674-5.588A17.4,17.4,0,0,1,21.727,34.142a17.553,17.553,0,1,1,31.217,3.9,9.111,9.111,0,0,0-1.006,7.986l.664,1.863a1.371,1.371,0,0,1-.021,1.049,1.341,1.341,0,0,1-.814.749l-4.475,1.563a.359.359,0,0,1-.45-.214l-5.01-14.324a.653.653,0,0,0-.707-.428.641.641,0,0,0-.535.621,3.9,3.9,0,0,1-.9,2.4,3.7,3.7,0,0,1-2.719,1.327,3.784,3.784,0,0,1-2.826-1.071,3.873,3.873,0,0,1-.385-5.031,3.822,3.822,0,0,1,4.325-1.285c1.242.45,3,.985,3.19,1.049a4.983,4.983,0,1,0-3.319-4.432.589.589,0,1,0,1.178-.043,3.79,3.79,0,0,1,6.059-3.276,3.708,3.708,0,0,1,1.5,2.633,3.794,3.794,0,0,1-5.053,4h-.021c-.021,0-1.884-.578-3.147-1.028a4.984,4.984,0,1,0-1.477,9.656,5.062,5.062,0,0,0,3.554-1.734,4.529,4.529,0,0,0,.771-1.22L45.707,51.42a1.537,1.537,0,0,0,1.948.942l4.411-1.542A2.609,2.609,0,0,0,53.5,49.643a2.568,2.568,0,0,0,.193-2.1l-.664-1.906a7.947,7.947,0,0,1,.878-6.958,18.566,18.566,0,0,0,1.991-16.7,18.782,18.782,0,0,0-23.98-11.262A18.744,18.744,0,0,0,32.582,46.2a7.823,7.823,0,0,1,4.924,4.86l4.411,12.632a.548.548,0,0,0,.214.278l10.277,7.28A.509.509,0,0,0,52.772,71.375Z" transform="translate(18.011 4.976)"/>
</svg>
