<?xml version="1.0" encoding="utf-8"?>
<!-- Generator: Adobe Illustrator 25.4.1, SVG Export Plug-In . SVG Version: 6.00 Build 0)  -->
<svg version="1.1" id="logo" xmlns="http://www.w3.org/2000/svg" xmlns:xlink="http://www.w3.org/1999/xlink" x="0px" y="0px"
	 viewBox="0 0 208.8 76.3" style="enable-background:new 0 0 208.8 76.3;" xml:space="preserve">
<style type="text/css">
	.st0{fill:#FFD767;}
	.st1{fill:#FFFFFF;}
	.st2{fill:#FFF9EB;}
</style>
<g id="Groupe_2961">
	<g id="Groupe_2961-2" transform="translate(0 0)">
		<path id="Tracé_9207" class="st0" d="M39.3,40.6c-1.2-0.5-1.3-0.3-1.9,0.7c-0.5,0.6-1,1-1.5,1.5c-0.5-1-1-1.9-1.6-2.8
			c-0.8-1.1-1.9-0.2-3-0.4c0.1-0.5,0.1-1,0.2-1.6c0.1-0.9,0-1.7-1-2.1c-0.6-0.4-1.2-0.9-1.8-1.4c0.6-0.5,1.1-1,1.7-1.5
			c0.5-0.4,0.7-1.1,0.4-1.7c-0.3-0.7-0.6-1.4-1-2.2c0.7,0,1.3-0.1,1.9-0.1c0.9,0.1,1.7-0.5,1.9-1.4c0,0,0-0.1,0-0.1
			c0.1-0.5,0.2-1,0.3-1.6c0.6,0.3,1.1,0.6,1.6,0.8c0.5,0.3,1.2,0.3,1.6-0.1c0.8-0.6,1.6-1.2,2.4-1.8c0.3,0.6,0.5,1.1,0.8,1.7
			c0.3,0.7,1,1.1,1.7,0.9c1-0.1,1.9-0.1,2.9-0.1c-0.1,0.7-0.2,1.3-0.3,1.9c-0.3,1.9-0.3,2,1.4,3c0.3,0.1,0.5,0.3,0.9,0.5
			c-0.5,0.5-1,1-1.5,1.5c-0.7,0.5-0.9,1.4-0.5,2.2c0.2,0.5,0.4,1.1,0.6,1.7c-0.9,0.1-1.8,0.3-2.6,0.5c-0.5,0.1-0.9,0.2-0.8,1
			c0.1,0.6-0.4,1.3-0.6,1.9C40.6,41.2,39.9,40.9,39.3,40.6z"/>
		<path id="Tracé_9208" class="st0" d="M27.7,30.6c0,0.1,0.1,0.2,0.1,0.3c0.5,1.1,0.4,1.4-0.6,2.2c-0.1,0.1-0.3,0.1-0.5,0.1
			c-1.7-0.9-3.4-1.8-5.1-2.8l0.1-0.3c1.4-0.2,2.9-0.4,4.3-0.5C27.2,29.4,27.2,29.5,27.7,30.6z"/>
		<path id="Tracé_9209" class="st0" d="M26.3,21.9l0.2-0.1c0.6,0.3,1.2,0.7,1.8,1c1,0.6,1.9,1.2,3,1.7c0.3,0.1,0.5,0.5,0.4,0.8
			c-0.2,1.6-0.2,1.5-1.8,1.8c-0.6,0.2-1.2-0.1-1.4-0.6c0,0,0-0.1,0-0.1C27.7,24.8,27,23.4,26.3,21.9z"/>
		<path id="Tracé_9210" class="st0" d="M18.9,28.3c-0.2,0-0.4,0-0.6-0.1c-2.1-1.1-4.2-2.1-6.3-3.2c-0.1,0-0.1-0.1-0.1-0.1
			c0.3-1.8,0.6-3.6,1-5.4c0.1-0.2,0.2-0.5,0.3-0.7c0.9-1.1,1.9-2.2,2.9-3.3c2,1.3,4,2.6,5.9,3.9c0.2,0.1,0.3,0.3,0.4,0.4
			c0.6,1.1,1.1,2.2,1.7,3.3c0.6,1.3,1.2,2.6,1.8,3.9c0,0.1,0.1,0.3,0.2,0.4C23.7,27.7,21.3,28,18.9,28.3z"/>
		<path id="Tracé_9211" class="st0" d="M18.2,30.7c2.2,1.4,4.4,2.8,6.6,4.3c-0.8,0.8-1.6,1.6-2.4,2.4c-1.1,1.1-2.2,2.2-3.4,3.2
			c-0.3,0.3-0.8,0.5-1.2,0.6c-1.9,0.3-3.7,0.6-5.6,0.9c-0.2,0-0.3,0-0.5,0.1c-0.5-2-1.4-4-2.5-5.8C9,36.2,9,36,9,35.8
			c0.2-1.4,0.4-2.8,0.6-4.2c0.7-0.1,1.5-0.2,2.3-0.3c1.8-0.2,3.7-0.5,5.5-0.7C17.7,30.6,18,30.6,18.2,30.7z"/>
		<path id="Tracé_9212" class="st0" d="M26.8,36.4c0.2-0.1,0.4-0.1,0.6,0c0.6,0.2,1.1,0.5,1.7,0.9c-0.2,0.8-0.4,1.6-0.6,2.4
			c-0.1,0.1-0.2,0.3-0.4,0.3c-1.8,0.3-3.7,0.5-5.5,0.7c0,0,0-0.1-0.1-0.2C24,39.1,25.4,37.7,26.8,36.4z"/>
		<path id="Tracé_9213" class="st0" d="M30.7,42.2c0.1-0.2,0.2-0.3,0.5-0.4c0.6-0.1,1.3-0.2,2-0.3c0.2,0.9,0.5,1.7,0.7,2.5
			c0,0.2-0.1,0.4-0.2,0.6c-1.3,1.3-2.7,2.5-4,3.8l-0.2-0.1C29.8,46.2,30.2,44.2,30.7,42.2z"/>
		<path id="Tracé_9214" class="st0" d="M34.3,23.1c0.3-2.1,0.7-4.3,1.1-6.6c0.6,1.3,1.2,2.3,1.7,3.4c0.2,0.5,0.4,1,0.7,1.5
			c0.5,1,0.5,1-0.4,1.8C37,23.6,36.5,24,36,24.5c-0.5-0.3-1-0.6-1.5-0.9C34.3,23.5,34.3,23.3,34.3,23.1z"/>
		<path id="Tracé_9215" class="st0" d="M49.7,4.3c0.5,0.1,1-0.3,1.2-0.8c0.4-1.1,0.7-2.2,1.1-3.5c0.6,0.9,1,1.8,1.4,2.8
			c0.1,0.6,0.7,1,1.3,1c0.8,0,1.7-0.1,2.5-0.2c0.5-0.1,1.1-0.1,1.6-0.2c-0.3,0.3-0.6,0.7-0.9,1c-0.7,0.7-1.4,1.3-2,2.1
			c-0.6,0.7-0.4,0.9,0.1,1.6c0.6,0.9,1,1.8,1.4,2.8c-0.1,0.1-0.2,0.2-0.3,0.3c-0.7-0.6-1.5-1.1-2.2-1.8c-0.4-0.5-1.2-0.5-1.7-0.1
			c-0.7,0.5-1.5,1.1-2.2,1.6c-0.6,0.5-1.1,1-1.6,1.5c-0.1,0-0.2-0.1-0.3-0.1c0.3-1.3,0.7-2.7,1-4c0.2-0.6,0-1.3-0.6-1.6
			c-0.6-0.4-1.3-0.7-1.9-1.1c-0.3-0.2-0.6-0.4-0.9-0.7C47.8,4.6,48.7,4.4,49.7,4.3z"/>
		<path id="Tracé_9216" class="st0" d="M44,5.6c1.5,0.8,3,1.6,4.3,2.3c-0.3,1.9-0.7,3.6-1,5.4c-0.1,0.7-0.4,1.2-0.9,1.7
			c-2,1.8-4,3.6-6,5.4c-0.2,0.2-0.5,0.4-0.7,0.6c-0.1-0.1-0.2-0.1-0.2-0.2c-1.1-2.3-2.2-4.6-3.2-6.9c-0.2-0.5-0.2-1-0.2-1.5
			c0.3-2.1,0.7-4.2,1.1-6.1c2.1-0.3,4.1-0.5,6.1-0.7C43.6,5.5,43.8,5.5,44,5.6z"/>
		<path id="Tracé_9217" class="st0" d="M28.7,4.8c1.6-1.5,3.1-3.1,4.7-4.6C33.6,0,33.8,0,33.9,0C36,1.1,38,2.3,40.1,3.4
			c0,0.1,0,0.2,0,0.2L36.9,4c-1.3,0.2-1.2,0.2-1.4,1.5c-0.3,1.5-0.7,2.9-1.1,4.4C34,9.1,33.7,8.5,33.5,8c-0.4-0.8-0.7-1.6-1-2.4
			c-0.2-0.5-0.7-0.8-1.2-0.7c-0.9,0.1-1.8,0.2-2.8,0.3C28.6,5,28.6,4.9,28.7,4.8z"/>
		<path id="Tracé_9218" class="st0" d="M24,9c0.9-1.2,2.4-1.9,3.9-1.8c0.8,0,1.7-0.2,2.5-0.4c0.4-0.1,0.8,0.1,0.9,0.4
			c0,0,0,0,0,0.1c0.7,1.6,1.5,3.3,2.2,4.9c0.1,0.2,0.2,0.5,0.1,0.8c-0.5,2.9-1.1,5.9-1.6,8.8c0,0.1-0.1,0.2-0.1,0.3
			c-0.5-0.3-0.9-0.5-1.3-0.8c-1.8-1-3.6-2-5.4-3c-0.6-0.3-1-0.7-1.3-1.3c-0.9-1.7-1.8-3.3-2.8-5C21,12,21,11.8,20.9,11.6
			c0.9-0.7,1.7-1.4,2.5-2.1C23.6,9.4,23.8,9.2,24,9z"/>
		<path id="Tracé_9219" class="st0" d="M12.9,8.9c0.8-0.1,1.4-0.8,1.6-1.5c0.2-0.9,0.6-1.8,0.9-2.9c0.4,1.1,0.8,2,1.2,2.9
			c0.5,1.1,1,1.3,2.1,0.9c0.7-0.2,1.5-0.3,2.2-0.3c-0.7,0.9-1.4,1.7-2,2.5c-0.6,0.8-0.6,0.9-0.1,1.8c0.6,1,1,2.2,1.5,3.3
			c-0.9-0.3-1.7-0.7-2.5-1.2c-1.1-0.8-2.5-0.6-3.4,0.3c-0.2,0.1-0.4,0.3-0.7,0.5c0.1-0.5,0.1-1,0.1-1.5c-0.1-0.9,0.2-1.8-1.2-2.1
			c-1-0.3-1.9-1.2-3-1.9C10.7,9.4,11.8,9.1,12.9,8.9z"/>
		<path id="Tracé_9220" class="st0" d="M13.7,45.8c-0.5,0.5-1.1,0.9-1.6,1.5c-0.7,0.7-0.4,1.4,0.3,2.1c0.6,0.8,1.2,1.6,1.7,2.5
			L13.9,52c-0.7-0.3-1.3-0.7-2-1c-3.1-1.5-2.3-1.6-4.9,0.5c-0.3,0.3-0.7,0.5-1,0.9c0.2-1.3,0.5-2.5,0.7-3.7c0.1-0.6-0.2-1.2-0.8-1.5
			c-0.8-0.5-1.6-0.8-2.4-1.3c-0.3-0.1-0.6-0.3-0.9-0.5c1-0.1,2-0.2,2.9-0.4c0.5,0,1-0.1,1.4-0.3c0.4-0.2,0.7-0.6,0.8-1
			c0.2-1.3,0.3-2.6,0.5-3.8c0.1,0,0.2,0,0.3,0c0.2,0.7,0.5,1.3,0.7,2c0.1,0.3,0.1,0.6,0.2,0.9c0.3,1.2,0.7,1.4,1.9,1.3
			c1.5-0.1,3-0.2,4.5-0.1C15.1,44.5,14.4,45.2,13.7,45.8z"/>
		<path id="Tracé_9221" class="st0" d="M26.3,62.3c-0.5,0.1-1,0.2-1.5,0.4c-0.4,0.2-0.6,0.5-0.7,0.9c-0.3,0.9-0.5,1.8-0.7,2.9
			c-0.6-0.7-1.2-1.3-1.6-2c-0.5-0.7-1.2-1-2-0.9c-0.9,0.1-1.8,0.1-2.3,0.1c0.3-0.6,0.7-1.3,1.2-2.1c0.1-0.1,0.2-0.2,0.4-0.3
			c0.9-0.3,1.1-0.7,0.8-1.7c-0.3-0.9-0.7-1.8-1.1-2.7c0.1-0.1,0.1-0.2,0.2-0.2c0.7,0.5,1.4,0.9,2,1.5c0.4,0.5,1.2,0.5,1.6,0.1
			c0,0,0,0,0,0c0.9-0.7,1.8-1.4,2.9-2.2c-0.2,0.9-0.3,1.7-0.4,2.4c-0.1,0.6-0.1,1.2-0.1,1.8c0,0,0.6,1.3,1.5,0.6
			c0.4,0.3,0.8,0.7,1.4,1.1C27.2,62.1,26.7,62.2,26.3,62.3z"/>
		<path id="Tracé_9222" class="st0" d="M31.7,61.6c-0.3,0-0.6-0.1-0.9-0.3c-1.3-0.7-2.5-1.4-3.8-2.2c0.5-1.9,0.9-3.9,1.4-5.9
			c0.1-0.3,0.3-0.5,0.5-0.7c1.6-1.5,3.1-3.1,4.7-4.6c0.4-0.4,0.8-0.9,1.3-1.4c0.2,0.4,0.3,0.7,0.5,1c0.9,2,1.8,4,2.6,6
			c0.2,0.6,0.3,1.2,0.2,1.8c-0.2,1.7-0.5,3.4-0.7,5.1c0,0.3-0.1,0.6-0.2,0.9C35.5,61.4,33.6,61.5,31.7,61.6z"/>
		<path id="Tracé_9223" class="st0" d="M6.5,24.6c1.1-0.8,2.1-1.8,3.2-2.7c0.1-0.1,0.3-0.2,0.5-0.2c-0.2,0.9-0.4,1.9-0.7,2.8
			C9.4,25,9,25.6,9.2,26c0.3,0.5,0.9,0.5,1.4,1c0.1,0.1,0.4,0,0.6-0.1c0.1,0,0.1,0.1,0.2,0.1c1,0.5,2.1,1.1,3.2,1.6
			c0,0.1,0,0.1,0,0.2c-1.8,0.3-3.5,0.7-5.3,0.9c-0.7,0.1-1.2,0.3-1.3,1.1c-0.2,0.8-0.4,1.6-0.7,2.4c-0.4-0.5-0.8-1-1.2-1.5
			c-0.1-0.2-0.1-0.4-0.1-0.6c0.1-1-0.4-1.7-1.5-1.5c-1.4,0.2-2.8,0.6-4.2,0.8c-0.1,0.1-0.3,0.1-0.5,0.1c0.7-0.8,1.4-1.6,2.1-2.4
			c0.1-0.1,0.2-0.1,0.3-0.1c1.2-0.3,1.5-1,1-2.2c-0.5-1.1-0.9-2.2-1.4-3.4c0-0.1-0.1-0.2-0.2-0.5c0.9,0.4,1.6,0.7,2.4,1"/>
	</g>
</g>
<path id="Tracé_9207-2" class="st0" d="M14.4,47.1c0,0,0-0.1,0-0.1c1.9-1.5,3.9-3,5.9-4.4c0.2-0.2,0.5-0.3,0.7-0.3
	c2.6,0,5.1,0,7.8,0c-1,3.1-1.9,6-2.9,8.9c0,0.2-0.1,0.3-0.3,0.5c-1.5,1.2-3.1,2.4-4.6,3.6c-1.4-0.9-2.7-1.7-3.9-2.4
	c-0.5-0.3-0.8-0.7-1-1.3C15.7,50,15.1,48.5,14.4,47.1z"/>
<circle id="Ellipse_1163" class="st0" cx="52.6" cy="36.9" r="18.2"/>
<path id="Tracé_9208-2" class="st1" d="M70.5,19.9l-0.6,3.5c-0.1,0.2-0.1,0.5,0,0.7c0.1-0.1,0.1-0.3,0.2-0.4c0.6-1.6,1-3.2,1.4-4.8
	c0-0.1,0-0.2,0-0.2c-0.2-0.4-0.5-0.7-0.8-1c-0.3-0.4-0.6-0.7-0.9-1c-0.6-0.7-1.2-1.4-1.9-2c0.1,0.2,0.1,0.4,0.3,0.6l2.4,3.5
	c0.1,0.1,0.3,0.2,0.2,0.4C70.6,19.3,70.5,19.6,70.5,19.9z"/>
<g id="Groupe_2962" transform="translate(84.507 15.288)">
	<path id="Tracé_9226" class="st2" d="M6.4,29.2l-0.2-0.6c0,0,0,0,0,0h-1c0,0,0,0,0,0L0,42.3v0l0,0h2.4c0,0,0,0,0,0l1-2.7h4.3
		l1,2.7c0,0,0,0,0,0h2.4c0,0,0,0,0,0v0L6.8,30.5L6.4,29.2z M4.3,37.4l1.3-3.6l1.3,3.6H4.3z"/>
	<path id="Tracé_9227" class="st2" d="M24.2,28.6C24.2,28.6,24.2,28.6,24.2,28.6l-5,9.8l-4.7-9.2l-0.3-0.6c0,0,0,0,0,0h-1
		c0,0,0,0,0,0v13.7c0,0,0,0,0,0h2.2c0,0,0,0,0,0V36l2.5,4.9l0.7,1.5c0,0,0,0,0,0h1c0,0,0,0,0,0l0.7-1.5L23,36v6.4c0,0,0,0,0,0h2.2
		c0,0,0,0,0,0V28.6c0,0,0,0,0,0H24.2z"/>
	<path id="Tracé_9228" class="st2" d="M33.6,29.2l-0.2-0.6c0,0,0,0,0,0h-1c0,0,0,0,0,0l-5.1,13.7v0l0,0h2.4c0,0,0,0,0,0l1-2.7h4.3
		l1,2.7c0,0,0,0,0,0h2.4c0,0,0,0,0,0v0L34,30.5L33.6,29.2z M31.5,37.4l1.3-3.6l1.3,3.6H31.5z"/>
	<path id="Tracé_9229" class="st2" d="M42.7,40.1V28.6c0,0,0,0,0,0h-2.2c0,0,0,0,0,0v13.7c0,0,0,0,0,0h9.8c0,0,0,0,0,0v-2.2
		c0,0,0,0,0,0H42.7z"/>
	<path id="Tracé_9230" class="st2" d="M69.9,30.8v-2.2c0,0,0,0,0,0H58.7c0,0,0,0,0,0v2.2c0,0,0,0,0,0h4.4v11.5c0,0,0,0,0,0h2.2
		c0,0,0,0,0,0V30.9L69.9,30.8C69.9,30.9,69.9,30.8,69.9,30.8z"/>
	<path id="Tracé_9231" class="st2" d="M74,29.2l-0.2-0.6c0,0,0,0,0,0h-1c0,0,0,0,0,0l-5.1,13.7v0l0,0H70c0,0,0,0,0,0l1-2.7h4.3
		l1,2.7c0,0,0,0,0,0h2.4c0,0,0,0,0,0v0l-4.4-11.8L74,29.2z M72,37.4l1.3-3.6l1.3,3.6H72z"/>
	<path id="Tracé_9232" class="st2" d="M85.8,28.6h-4.9c0,0,0,0,0,0v13.7c0,0,0,0,0,0h4.9c3.8,0,7-3,7-6.8c0-3.8-3-7-6.8-7
		C85.9,28.6,85.9,28.6,85.8,28.6z M85.8,40.1h-2.7v-9.2h2.7c2.6,0,4.6,2.1,4.6,4.7C90.3,38.1,88.3,40.1,85.8,40.1z"/>
	<path id="Tracé_9233" class="st2" d="M105.7,33.5c0-2.7-2.2-5-5-5h-6.2c0,0,0,0,0,0v13.7c0,0,0,0,0,0h2.2c0,0,0,0,0,0v-3.8h3.4
		c0.2,0,0.4,0.1,0.6,0.2l2.7,2.7v0c0.6,0.6,1.4,0.9,2.2,0.9c0,0,0,0,0,0v-2.2c0,0,0,0,0,0c-0.2,0-0.4-0.1-0.6-0.2l-2-2
		C104.7,37,105.7,35.4,105.7,33.5z M100.7,36.2h-3.9v-5.4h3.9c1.5,0,2.7,1.2,2.7,2.7S102.2,36.2,100.7,36.2
		C100.7,36.2,100.7,36.2,100.7,36.2z"/>
	<path id="Tracé_9234" class="st2" d="M107.5,28.6C107.4,28.6,107.4,28.6,107.5,28.6l0,13.8c0,0,0,0,0,0h2.2c0,0,0,0,0,0V28.6
		c0,0,0,0,0,0H107.5z"/>
	<path id="Tracé_9235" class="st2" d="M118.8,28.6h-7.1c0,0,0,0,0,0v13.7c0,0,0,0,0,0h7.1c2.2,0,4-1.8,4-4c0-1.1-0.4-2.1-1.2-2.9
		c0.8-0.8,1.2-1.8,1.2-2.9C122.8,30.4,121,28.6,118.8,28.6z M118.8,40.1H114v-3.5h4.9c1,0,1.7,0.8,1.7,1.7
		C120.6,39.3,119.8,40.1,118.8,40.1z M118.8,34.3H114v-3.5h4.9c1,0,1.7,0.8,1.7,1.7C120.6,33.6,119.8,34.3,118.8,34.3L118.8,34.3z"
		/>
	<path id="Tracé_9236" class="st2" d="M11.1,25.7c-0.1-0.1-0.3-0.2-0.5-0.3c-0.2-0.1-0.4-0.1-0.6-0.1c-0.2,0-0.4,0-0.6,0.1
		c-0.2,0.1-0.3,0.2-0.5,0.3c-0.1,0.1-0.2,0.3-0.3,0.5c-0.1,0.2-0.1,0.4-0.1,0.6c0,0.2,0,0.4,0.1,0.6c0.1,0.2,0.2,0.3,0.3,0.5
		c0.1,0.1,0.3,0.2,0.5,0.3c0.2,0.1,0.4,0.1,0.6,0.1c0.8,0,1.5-0.7,1.5-1.5c0-0.2,0-0.4-0.1-0.6C11.4,26,11.3,25.8,11.1,25.7z"/>
	<path id="Tracé_9237" class="st2" d="M9.1,22.8c5.1,0,8.2-0.8,9.4-2.3c0.5,1,1.5,1.6,2.6,1.6v0h1.6c1.3,0.1,2.5-0.4,3.5-1.3
		c0.9-0.9,1.3-2.2,1.3-3.5c0-2.2-0.6-3.3-1.7-3.3c-0.3,0-0.7,0.1-0.9,0.4c-0.2,0.3-0.4,0.6-0.3,0.9c0,0.1,0,0.3,0,0.5
		c0,0.2,0.1,0.4,0.2,0.7c0.1,0.4,0.2,0.8,0.2,1.1c0,0.9-0.7,1.4-2,1.4H22c-1.2,0-1.9-0.5-2.1-1.4c-0.1-0.6-0.2-1-0.2-1
		c-0.1-0.4-0.5-0.6-0.9-0.6c-0.4,0-0.7,0.3-1,0.8c-0.2,0.5-0.4,1-0.7,1.5c-0.8,1-2.9,1.5-6.3,1.5H9.2c-2.3,0-3.9-0.3-4.7-0.8
		c-0.6-0.3-0.9-1-0.9-1.6c0-0.3,0.1-0.6,0.1-1c0-0.2,0.1-0.4,0.1-0.6c0-0.1,0-0.3,0-0.4c0.1-0.5-0.3-0.9-0.7-1c-0.1,0-0.2,0-0.3,0
		c-0.6,0-1.1,0.5-1.4,1.6c-0.2,0.7-0.3,1.5-0.3,2.3C1.2,21.2,3.8,22.8,9.1,22.8z"/>
	<path id="Tracé_9238" class="st2" d="M23.9,24.6c-0.2,0-0.4,0-0.6,0.1c-0.2,0.1-0.3,0.2-0.5,0.3c-0.1,0.1-0.3,0.3-0.3,0.5
		c-0.1,0.2-0.1,0.4-0.1,0.6c0,0.2,0,0.4,0.1,0.6c0.1,0.2,0.2,0.3,0.3,0.5c0.1,0.1,0.3,0.3,0.5,0.3c0.4,0.2,0.8,0.2,1.2,0
		c0.2-0.1,0.3-0.2,0.5-0.3c0.1-0.1,0.2-0.3,0.3-0.5c0.1-0.2,0.1-0.4,0.1-0.6c0-0.4-0.2-0.8-0.5-1.1C24.7,24.8,24.3,24.6,23.9,24.6z"
		/>
	<path id="Tracé_9239" class="st2" d="M28.2,27.5c0.2-0.1,0.3-0.2,0.5-0.3c0.1-0.1,0.3-0.3,0.3-0.5c0.1-0.2,0.1-0.4,0.1-0.6
		c0-0.2,0-0.4-0.1-0.6c-0.1-0.2-0.2-0.3-0.3-0.5c-0.1-0.1-0.3-0.2-0.5-0.3c-0.2-0.1-0.4-0.1-0.6-0.1c-0.4,0-0.8,0.2-1.1,0.4
		c-0.3,0.3-0.5,0.7-0.5,1.1c0,0.2,0,0.4,0.1,0.6c0.1,0.2,0.2,0.3,0.3,0.5c0.1,0.1,0.3,0.3,0.5,0.3c0.2,0.1,0.4,0.1,0.6,0.1
		C27.8,27.7,28,27.6,28.2,27.5z"/>
	<path id="Tracé_9240" class="st2" d="M38.5,14.2c-0.9,0-1.3,0.7-1.3,2.1c0,0.2,0,0.4,0,0.8s0,0.6,0,0.8c0.1,1.4-0.4,2.7-1.3,3.7
		c-1.2,1.1-2.7,2-4.2,2.6c-0.7,0.2-1.2,0.8-1.2,1.5c0,0.8,0.5,1.2,1.3,1.2c0.2,0,0.4,0,0.6-0.1c2.2-0.5,4.1-1.7,5.6-3.4
		c1.4-1.7,2.2-3.8,2.1-6c0-0.3,0-0.6,0-1C40,14.9,39.5,14.2,38.5,14.2z"/>
	<path id="Tracé_9241" class="st2" d="M55.2,11.9c0.1,0.1,0.3,0.3,0.5,0.3c0.2,0.1,0.4,0.1,0.6,0.1c0.2,0,0.4,0,0.6-0.1
		c0.2-0.1,0.3-0.2,0.5-0.3c0.1-0.1,0.2-0.3,0.3-0.5c0.2-0.4,0.2-0.8,0-1.2c-0.1-0.2-0.2-0.3-0.3-0.5c-0.1-0.1-0.3-0.2-0.5-0.3
		c-0.2-0.1-0.4-0.1-0.6-0.1c-0.2,0-0.4,0-0.6,0.1c-0.4,0.2-0.6,0.4-0.8,0.8c-0.2,0.4-0.2,0.8,0,1.2C54.9,11.6,55,11.8,55.2,11.9z"/>
	<path id="Tracé_9242" class="st2" d="M58.9,11.9c0.1,0.1,0.3,0.3,0.5,0.3c0.2,0.1,0.4,0.1,0.6,0.1c0.2,0,0.4,0,0.6-0.1
		c0.2-0.1,0.3-0.2,0.5-0.3c0.1-0.1,0.2-0.3,0.3-0.5c0.3-0.8,0-1.7-0.8-2c-0.2-0.1-0.4-0.1-0.6-0.1c-0.2,0-0.4,0-0.6,0.1
		c-0.2,0.1-0.3,0.2-0.5,0.3c-0.1,0.1-0.3,0.3-0.3,0.5c-0.2,0.4-0.2,0.8,0,1.2C58.6,11.6,58.7,11.8,58.9,11.9z"/>
	<path id="Tracé_9243" class="st2" d="M60,17.3c0-2.2-0.6-3.3-1.7-3.3c-0.3,0-0.7,0.1-0.9,0.4C57.1,14.7,57,15,57,15.4
		c0,0.1,0,0.3,0,0.5c0,0.2,0.1,0.4,0.2,0.7c0.1,0.4,0.2,0.8,0.2,1.1c0,0.9-0.7,1.4-2,1.4h-1.1c-0.7,0-1.3-0.2-1.8-0.6
		c-0.4-0.5-0.8-1-1.1-1.6c-1.6-3.1-2.7-4.8-3.4-4.9c-0.7-0.2-1.5,0.2-1.7,1c0,0.1,0,0.2,0,0.2c0.1,0.7,0.3,1.3,0.7,1.8
		c0.3,0.5,0.6,0.9,0.8,1.2s0.4,0.6,0.5,0.7c0.4,0.5,0.7,1.1,0.8,1.8v0.1c0,0.9-1.6,1.4-4.9,1.6c-1.2,0.1-1.8,0.5-1.8,1.2v0.1
		c0.1,1,0.9,1.5,2.5,1.5c0.8,0,1.7-0.1,2.5-0.3c1.9-0.4,3.1-1,3.6-1.9c0.6,0.8,1.6,1.2,2.6,1.1v0h1.6c1.3,0.1,2.5-0.4,3.5-1.3
		C59.6,19.8,60,18.6,60,17.3z"/>
	<path id="Tracé_9244" class="st2" d="M115.3,21.3c0.5-0.7,0.8-1.6,0.8-2.5c0-0.9-0.2-1.9-0.7-2.7c-0.5-0.8-1.4-1.3-2.4-1.3
		c-1,0.1-1.9,0.6-2.5,1.3c-0.1,0.1-0.2,0.3-0.4,0.6s-0.5,0.7-0.8,1.1c-0.2,0.3-0.5,0.6-0.9,0.9c-0.4,0.2-0.8,0.2-1.2,0.2H85
		c-1.5,0-2.2-1.1-2.2-3.3V7.5c0-1-0.4-1.5-1.3-1.5c-0.4,0-0.8,0.1-1,0.4c-0.3,0.3-0.4,0.7-0.4,1.1l0.4,12.9c0.1,1.1-0.2,2.2-0.9,3.1
		c-0.8,0.8-1.9,1.3-3,1.2c-0.9,0-1.8-0.2-2.5-0.7c-0.7-0.5-1.1-1.4-1-2.2c0-0.4,0.1-0.9,0.2-1.3c0.1-0.4,0.1-0.9,0.2-1.3
		c0-0.7-0.3-1-1-1c-0.6,0-1.1,0.5-1.4,1.4c-0.3,0.8-0.4,1.7-0.4,2.6c-0.1,1.5,0.5,3,1.5,4c1.1,1.1,2.6,1.6,4.1,1.6
		c1.8,0.1,3.6-0.6,4.9-1.9c1.1-1.4,1.7-3.2,1.6-5c0.3,0.6,0.8,0.9,1.5,1V22h23.3c0.9,0,1.8-0.3,2.5-1c0.7,0.9,1.8,1.4,3,1.3
		C113.9,22.4,114.8,22,115.3,21.3z M112,19.6c-0.4-0.2-0.6-0.5-0.6-0.7c0-0.4,0.2-0.7,0.5-1c0.3-0.3,0.7-0.5,1-0.5
		c0.3,0,0.7,0.2,0.8,0.5c0.2,0.3,0.3,0.6,0.3,1c0,0.6-0.4,1-1.1,1C112.6,19.8,112.3,19.7,112,19.6z"/>
	<path id="Tracé_9245" class="st2" d="M121.6,22.5c0.8,0,1.2-0.5,1.2-1.4V7.9c0-1.3-0.4-2-1.3-2c-0.5,0-1,0.3-1.2,0.7
		c-0.2,0.4-0.3,0.9-0.3,1.4l0.5,13C120.5,22,120.9,22.5,121.6,22.5z"/>
	<path id="Tracé_9246" class="st2" d="M123.6,2.6c-0.1,0-0.3,0-0.4,0c-1,0.3-1.5,0.4-1.6,0.4c-1,0-1.5-0.3-1.5-1
		c0-0.6,0.3-0.9,1-0.9c0.2,0,0.4,0,0.6,0.1c0.2,0,0.4,0.1,0.7,0.1c0.3,0,0.5-0.2,0.5-0.5s-0.2-0.6-0.6-0.7c-0.3-0.1-0.7-0.2-1-0.2
		c-0.7,0-1.3,0.2-1.8,0.7c-0.5,0.4-0.7,1-0.7,1.7c0,0.6,0.3,1.2,0.7,1.5l-0.8,0.3c-0.4,0.2-0.6,0.4-0.6,0.7s0.2,0.5,0.6,0.5
		c0.1,0,0.2,0,0.4-0.1l4.5-1.4c0.6-0.2,0.8-0.4,0.8-0.8S124.1,2.6,123.6,2.6z"/>
</g>
<path id="Tracé_9209-2" class="st2" d="M70.8,76.4c0.1,0,0.1,0,0.2,0c0.2-0.1,0.3-0.2,0.4-0.4l3.5-12.1c0-0.1,0-0.2,0-0.4l-1.7-4.8
	c-0.1-0.3-0.4-0.5-0.7-0.4c-0.3,0.1-0.5,0.4-0.4,0.7c0,0,0,0,0,0.1l1.6,4.6l-1.4,4.9c-0.7,2.4-3.2,3.8-5.6,3.1
	c-0.5-0.1-1-0.4-1.4-0.7l-4.2-3l-4.4-12.5c-0.9-2.6-3-4.7-5.7-5.6c-5.3-1.7-9.4-5.7-11.2-10.9C36.5,30,41.4,20,50.5,16.8
	s19.2,1.6,22.4,10.8C74.7,32.7,74,38.4,71,43c-1.6,2.4-1.9,5.3-1,8l0.7,1.9c0.1,0.3,0.1,0.7,0,1c-0.2,0.4-0.4,0.6-0.8,0.7l-4.5,1.6
	c-0.2,0.1-0.4,0-0.4-0.2l-5-14.3c-0.1-0.3-0.4-0.5-0.7-0.4c-0.3,0.1-0.5,0.3-0.5,0.6c0,0.9-0.3,1.7-0.9,2.4C57,45.1,56,45.6,55,45.6
	c-1,0.1-2.1-0.3-2.8-1.1c-1.4-1.4-1.5-3.5-0.4-5c1-1.3,2.8-1.8,4.3-1.3c1.2,0.5,3,1,3.2,1c2.6,0.9,5.4-0.4,6.4-3
	c0.9-2.6-0.4-5.4-3-6.4s-5.4,0.4-6.4,3c-0.2,0.6-0.3,1.3-0.3,1.9c0,0.3,0.3,0.6,0.6,0.6c0.3,0,0.6-0.3,0.6-0.6l0,0
	c-0.1-2.1,1.4-3.9,3.5-4c0.9-0.1,1.8,0.2,2.5,0.8c0.9,0.6,1.4,1.6,1.5,2.6c0.2,2.1-1.3,4-3.3,4.2c-0.6,0.1-1.2,0-1.7-0.2h0
	c0,0-1.9-0.6-3.1-1c-2.6-0.9-5.4,0.4-6.4,3c-0.9,2.6,0.4,5.4,3,6.4c0.6,0.2,1.3,0.3,2,0.3c1.4-0.1,2.7-0.7,3.6-1.7
	c0.3-0.4,0.6-0.8,0.8-1.2l4.4,12.6c0.3,0.8,1.2,1.2,1.9,0.9l4.4-1.5c0.6-0.2,1.1-0.6,1.4-1.2c0.4-0.6,0.4-1.4,0.2-2.1L71,50.6
	c-0.8-2.3-0.5-4.9,0.9-7c3.3-4.9,4-11.1,2-16.7c-3.5-9.7-14.2-14.7-24-11.3c-9.7,3.5-14.8,14.3-11.3,24c2,5.5,6.4,9.7,11.9,11.5
	c2.3,0.8,4.1,2.6,4.9,4.9l4.4,12.6c0,0.1,0.1,0.2,0.2,0.3l10.3,7.3C70.5,76.3,70.6,76.4,70.8,76.4z"/>
</svg>
